<?xml version="1.0" encoding="utf-8" standalone="no"?>
<!DOCTYPE svg PUBLIC "-//W3C//DTD SVG 1.1//EN"
  "http://www.w3.org/Graphics/SVG/1.1/DTD/svg11.dtd">
<svg xmlns:xlink="http://www.w3.org/1999/xlink" width="275.338225pt" height="394.56pt" viewBox="0 0 275.338225 394.56" xmlns="http://www.w3.org/2000/svg" version="1.1">
 <metadata>
  <rdf:RDF xmlns:dc="http://purl.org/dc/elements/1.1/" xmlns:cc="http://creativecommons.org/ns#" xmlns:rdf="http://www.w3.org/1999/02/22-rdf-syntax-ns#">
   <cc:Work>
    <dc:type rdf:resource="http://purl.org/dc/dcmitype/StillImage"/>
    <dc:date>2026-03-03T13:34:16.221624</dc:date>
    <dc:format>image/svg+xml</dc:format>
    <dc:creator>
     <cc:Agent>
      <dc:title>Matplotlib v3.9.4, https://matplotlib.org/</dc:title>
     </cc:Agent>
    </dc:creator>
   </cc:Work>
  </rdf:RDF>
 </metadata>
 <defs>
  <style type="text/css">*{stroke-linejoin: round; stroke-linecap: butt}</style>
 </defs>
 <g id="figure_1">
  <g id="patch_1">
   <path d="M 0 394.56 
L 275.338225 394.56 
L 275.338225 0 
L 0 0 
L 0 394.56 
z
" style="fill: none"/>
  </g>
  <g id="axes_1">
   <g id="patch_2">
    <path d="M 137.669112 109.100876 
C 139.637779 109.100876 141.52608 108.318716 142.918138 106.926658 
C 144.310195 105.534601 145.092355 103.6463 145.092355 101.677633 
C 145.092355 99.708966 144.310195 97.820666 142.918138 96.428608 
C 141.52608 95.03655 139.637779 94.254391 137.669112 94.254391 
C 135.700445 94.254391 133.812145 95.03655 132.420087 96.428608 
C 131.028029 97.820666 130.24587 99.708966 130.24587 101.677633 
C 130.24587 103.6463 131.028029 105.534601 132.420087 106.926658 
C 133.812145 108.318716 135.700445 109.100876 137.669112 109.100876 
z
" clip-path="url(#p5cd67af20d)" style="fill: #ffffff"/>
   </g>
   <g id="patch_3">
    <path d="M 138.652709 99.377703 
Q 171.551888 80.383353 204.451068 61.389002 
L 200.701068 54.893812 
Q 207.280894 56.2911 213.86072 57.688388 
Q 211.780894 64.085328 209.701068 70.482269 
L 205.951068 63.987078 
Q 173.051888 82.981429 140.152709 101.975779 
L 138.652709 99.377703 
z
" clip-path="url(#p5cd67af20d)" style="fill: #ffffff; stroke: #ffffff; stroke-width: 2.5; stroke-linecap: round"/>
   </g>
   <g id="patch_4">
    <path d="M 115.174438 157.91432 
L 160.163787 157.91432 
L 187.157396 319.875976 
L 88.180828 319.875976 
L 115.174438 157.91432 
z
" clip-path="url(#p5cd67af20d)" style="fill: none; stroke: #ffffff; stroke-width: 2.5; stroke-linejoin: miter"/>
   </g>
   <g id="line2d_1">
    <path d="M 137.669112 101.677633 
L 138.400825 102.720032 
L 139.264918 103.572198 
L 140.200939 104.187181 
L 141.115681 104.528015 
L 141.961578 104.614748 
L 142.742402 104.471959 
L 143.433575 104.115232 
L 144.018049 103.567008 
L 144.529356 102.768518 
L 144.911295 101.742642 
L 145.147327 100.430765 
L 145.191614 98.889416 
L 145.010132 97.05414 
L 144.576594 95.01951 
L 143.876677 92.822468 
L 142.901859 90.506527 
L 141.649895 88.121079 
L 140.197006 85.824448 
L 138.50422 83.565097 
L 136.678788 81.492446 
L 134.667287 79.550525 
L 132.599658 77.866883 
L 130.520025 76.455669 
L 128.467509 75.319951 
L 126.35717 74.408922 
L 124.332406 73.779022 
L 122.418175 73.409991 
L 120.514776 73.274402 
L 118.757505 73.372128 
L 117.04339 73.698084 
L 115.497313 74.216023 
L 114.017272 74.946301 
L 112.617091 75.893379 
L 111.310521 77.060269 
L 110.111127 78.448467 
L 109.032192 80.057898 
L 108.086603 81.88687 
L 107.286752 83.932033 
L 106.644425 86.188357 
L 106.1707 88.649117 
L 105.875852 91.305892 
L 105.769063 94.358433 
L 105.888598 97.609808 
L 106.243262 101.043317 
L 106.840299 104.640184 
L 107.685287 108.37964 
L 108.782043 112.239033 
L 110.132533 116.193944 
L 111.736804 120.218335 
L 113.592923 124.284698 
L 115.69693 128.364232 
L 118.042807 132.427031 
L 120.622466 136.442283 
L 123.425749 140.378482 
L 126.233159 143.952744 
L 129.213231 147.404109 
L 132.352946 150.706387 
L 135.637836 153.833556 
L 139.052034 156.759942 
L 142.323137 159.275527 
L 145.676189 161.57671 
L 149.095591 163.644551 
L 152.296679 165.330498 
L 155.526878 166.788527 
L 158.772259 168.005762 
L 161.748279 168.899709 
L 164.713682 169.572533 
L 167.656931 170.016265 
L 170.56632 170.223658 
L 173.430011 170.188227 
L 175.983681 169.940505 
L 176.989804 169.783068 
L 176.989804 169.783068 
" clip-path="url(#p5cd67af20d)" style="fill: none; stroke: #ffffff; stroke-width: 4.5; stroke-linecap: round"/>
   </g>
   <g id="line2d_2">
    <path d="M 137.669112 101.677633 
L 136.9374 100.635234 
L 136.073307 99.783068 
L 135.137286 99.168086 
L 134.222544 98.827251 
L 133.376647 98.740518 
L 132.595823 98.883307 
L 131.90465 99.240035 
L 131.320176 99.788258 
L 130.808868 100.586748 
L 130.42693 101.612625 
L 130.190898 102.924501 
L 130.146611 104.46585 
L 130.328093 106.301126 
L 130.761631 108.335756 
L 131.461548 110.532798 
L 132.436366 112.848739 
L 133.68833 115.234188 
L 135.141219 117.530818 
L 136.834005 119.790169 
L 138.659437 121.86282 
L 140.670938 123.804741 
L 142.738567 125.488383 
L 144.8182 126.899597 
L 146.870716 128.035315 
L 148.981055 128.946345 
L 151.005818 129.576244 
L 152.92005 129.945275 
L 154.823448 130.080864 
L 156.58072 129.983138 
L 158.294835 129.657182 
L 159.840912 129.139244 
L 161.320953 128.408965 
L 162.721134 127.461887 
L 164.027704 126.294997 
L 165.227098 124.906799 
L 166.306033 123.297368 
L 167.251621 121.468396 
L 168.051473 119.423234 
L 168.6938 117.16691 
L 169.167524 114.706149 
L 169.462373 112.049374 
L 169.569162 108.996833 
L 169.449626 105.745458 
L 169.094962 102.311949 
L 168.497926 98.715083 
L 167.652938 94.975626 
L 166.556182 91.116234 
L 165.205692 87.161322 
L 163.601421 83.136931 
L 161.745301 79.070569 
L 159.641295 74.991034 
L 157.295418 70.928235 
L 154.715759 66.912983 
L 151.912476 62.976784 
L 149.105066 59.402522 
L 146.124994 55.951157 
L 142.985278 52.648879 
L 139.700389 49.521711 
L 136.286191 46.595325 
L 133.015088 44.079739 
L 129.662036 41.778556 
L 126.242634 39.710715 
L 123.041546 38.024769 
L 119.811347 36.566739 
L 116.565966 35.349504 
L 113.589945 34.455557 
L 110.624543 33.782733 
L 107.681293 33.339001 
L 104.771905 33.131608 
L 101.908213 33.16704 
L 99.354543 33.414761 
L 98.348421 33.572198 
L 98.348421 33.572198 
" clip-path="url(#p5cd67af20d)" style="fill: none; stroke: #ffffff; stroke-width: 4.5; stroke-linecap: round"/>
   </g>
   <g id="line2d_3">
    <path d="M 163.324663 53.106799 
L 159.428187 48.952907 
L 155.425172 45.057173 
L 151.335216 41.438672 
L 147.178347 38.115122 
L 142.974918 35.102795 
L 139.592476 32.92698 
L 136.204007 30.966637 
L 132.820129 29.227911 
L 129.451448 27.71625 
L 126.108523 26.436394 
L 122.80183 25.392352 
L 119.541732 24.587398 
L 116.338449 24.024054 
L 113.202017 23.704085 
L 110.142269 23.628494 
L 107.168793 23.797519 
L 104.290909 24.210629 
L 101.517636 24.86653 
L 98.857666 25.763166 
L 96.319335 26.897727 
L 93.9106 28.266657 
L 91.639009 29.865666 
L 89.511682 31.689742 
L 87.535286 33.733168 
L 85.716015 35.989541 
L 84.059572 38.451787 
L 82.571147 41.112191 
L 81.255406 43.962414 
L 80.116472 46.993524 
L 79.157915 50.19602 
L 78.382738 53.559866 
L 77.793373 57.074518 
L 77.391665 60.728962 
L 77.178873 64.511743 
L 77.155666 68.411008 
L 77.322114 72.414533 
L 77.677697 76.509773 
L 78.221301 80.683891 
L 79.162557 85.992513 
L 80.390282 91.377935 
L 81.898463 96.813787 
L 83.679716 102.273455 
L 85.72532 107.730205 
L 88.025258 113.15732 
L 90.56827 118.528226 
L 93.341903 123.816626 
L 96.332577 128.996626 
L 99.52565 134.042863 
L 102.905485 138.930629 
L 106.455535 143.635991 
L 110.158418 148.135911 
L 113.996002 152.408355 
L 117.949497 156.432405 
L 121.999547 160.188356 
L 126.12632 163.657819 
L 130.309611 166.823806 
L 133.683178 169.127623 
L 137.069238 171.220045 
L 140.457178 173.094512 
L 143.83638 174.74515 
L 147.196252 176.166786 
L 150.526266 177.354964 
L 153.815984 178.305961 
L 157.055095 179.016795 
L 160.233449 179.485239 
L 163.341083 179.709825 
L 166.368258 179.689848 
L 169.305487 179.425373 
L 172.143564 178.917226 
L 174.873593 178.167001 
L 177.487019 177.17705 
L 179.975652 175.950475 
L 182.33169 174.491119 
L 184.547751 172.803558 
L 186.616888 170.893079 
L 188.532618 168.765672 
L 190.288935 166.428002 
L 191.880335 163.887397 
L 193.301831 161.151819 
L 194.548968 158.229842 
L 195.617836 155.130623 
L 196.505086 151.863877 
L 197.207937 148.439841 
L 197.724187 144.869246 
L 198.052216 141.163285 
L 198.190998 137.33357 
L 198.140097 133.392105 
L 197.899673 129.351244 
L 197.470479 125.22365 
L 196.670635 119.96192 
L 195.581899 114.610665 
L 194.209602 109.196085 
L 192.560464 103.744692 
L 192.560464 103.744692 
" clip-path="url(#p5cd67af20d)" style="fill: none; stroke: #ffffff; stroke-width: 4.5; stroke-linecap: round"/>
   </g>
   <g id="line2d_4">
    <path d="M 88.180828 319.875976 
L 187.157396 319.875976 
" clip-path="url(#p5cd67af20d)" style="fill: none; stroke: #ffffff; stroke-width: 1.2; stroke-linecap: square"/>
   </g>
   <g id="line2d_5">
    <path d="M 99.428166 319.875976 
L 99.428166 306.379172 
" clip-path="url(#p5cd67af20d)" style="fill: none; stroke: #ffffff; stroke-width: 0.8; stroke-linecap: square"/>
   </g>
   <g id="line2d_6">
    <path d="M 119.673373 319.875976 
L 119.673373 306.379172 
" clip-path="url(#p5cd67af20d)" style="fill: none; stroke: #ffffff; stroke-width: 0.8; stroke-linecap: square"/>
   </g>
   <g id="line2d_7">
    <path d="M 139.91858 319.875976 
L 139.91858 306.379172 
" clip-path="url(#p5cd67af20d)" style="fill: none; stroke: #ffffff; stroke-width: 0.8; stroke-linecap: square"/>
   </g>
   <g id="line2d_8">
    <path d="M 160.163787 319.875976 
L 160.163787 306.379172 
" clip-path="url(#p5cd67af20d)" style="fill: none; stroke: #ffffff; stroke-width: 0.8; stroke-linecap: square"/>
   </g>
   <g id="line2d_9">
    <path d="M 180.408994 319.875976 
L 180.408994 306.379172 
" clip-path="url(#p5cd67af20d)" style="fill: none; stroke: #ffffff; stroke-width: 0.8; stroke-linecap: square"/>
   </g>
   <g id="line2d_10">
    <path d="M 90.430296 306.379172 
L 184.907929 306.379172 
" clip-path="url(#p5cd67af20d)" style="fill: none; stroke: #ffffff; stroke-width: 1.2; stroke-linecap: square"/>
   </g>
   <g id="line2d_11">
    <path d="M 90.430296 306.379172 
L 90.430296 292.882367 
" clip-path="url(#p5cd67af20d)" style="fill: none; stroke: #ffffff; stroke-width: 0.8; stroke-linecap: square"/>
   </g>
   <g id="line2d_12">
    <path d="M 110.675503 306.379172 
L 110.675503 292.882367 
" clip-path="url(#p5cd67af20d)" style="fill: none; stroke: #ffffff; stroke-width: 0.8; stroke-linecap: square"/>
   </g>
   <g id="line2d_13">
    <path d="M 130.92071 306.379172 
L 130.92071 292.882367 
" clip-path="url(#p5cd67af20d)" style="fill: none; stroke: #ffffff; stroke-width: 0.8; stroke-linecap: square"/>
   </g>
   <g id="line2d_14">
    <path d="M 151.165917 306.379172 
L 151.165917 292.882367 
" clip-path="url(#p5cd67af20d)" style="fill: none; stroke: #ffffff; stroke-width: 0.8; stroke-linecap: square"/>
   </g>
   <g id="line2d_15">
    <path d="M 171.411124 306.379172 
L 171.411124 292.882367 
" clip-path="url(#p5cd67af20d)" style="fill: none; stroke: #ffffff; stroke-width: 0.8; stroke-linecap: square"/>
   </g>
   <g id="line2d_16">
    <path d="M 92.679763 292.882367 
L 182.658462 292.882367 
" clip-path="url(#p5cd67af20d)" style="fill: none; stroke: #ffffff; stroke-width: 1.2; stroke-linecap: square"/>
   </g>
   <g id="line2d_17">
    <path d="M 103.927101 292.882367 
L 103.927101 279.385562 
" clip-path="url(#p5cd67af20d)" style="fill: none; stroke: #ffffff; stroke-width: 0.8; stroke-linecap: square"/>
   </g>
   <g id="line2d_18">
    <path d="M 124.172308 292.882367 
L 124.172308 279.385562 
" clip-path="url(#p5cd67af20d)" style="fill: none; stroke: #ffffff; stroke-width: 0.8; stroke-linecap: square"/>
   </g>
   <g id="line2d_19">
    <path d="M 144.417515 292.882367 
L 144.417515 279.385562 
" clip-path="url(#p5cd67af20d)" style="fill: none; stroke: #ffffff; stroke-width: 0.8; stroke-linecap: square"/>
   </g>
   <g id="line2d_20">
    <path d="M 164.662722 292.882367 
L 164.662722 279.385562 
" clip-path="url(#p5cd67af20d)" style="fill: none; stroke: #ffffff; stroke-width: 0.8; stroke-linecap: square"/>
   </g>
   <g id="line2d_21">
    <path d="M 94.929231 279.385562 
L 180.408994 279.385562 
" clip-path="url(#p5cd67af20d)" style="fill: none; stroke: #ffffff; stroke-width: 1.2; stroke-linecap: square"/>
   </g>
   <g id="line2d_22">
    <path d="M 94.929231 279.385562 
L 94.929231 265.888757 
" clip-path="url(#p5cd67af20d)" style="fill: none; stroke: #ffffff; stroke-width: 0.8; stroke-linecap: square"/>
   </g>
   <g id="line2d_23">
    <path d="M 115.174438 279.385562 
L 115.174438 265.888757 
" clip-path="url(#p5cd67af20d)" style="fill: none; stroke: #ffffff; stroke-width: 0.8; stroke-linecap: square"/>
   </g>
   <g id="line2d_24">
    <path d="M 135.419645 279.385562 
L 135.419645 265.888757 
" clip-path="url(#p5cd67af20d)" style="fill: none; stroke: #ffffff; stroke-width: 0.8; stroke-linecap: square"/>
   </g>
   <g id="line2d_25">
    <path d="M 155.664852 279.385562 
L 155.664852 265.888757 
" clip-path="url(#p5cd67af20d)" style="fill: none; stroke: #ffffff; stroke-width: 0.8; stroke-linecap: square"/>
   </g>
   <g id="line2d_26">
    <path d="M 175.910059 279.385562 
L 175.910059 265.888757 
" clip-path="url(#p5cd67af20d)" style="fill: none; stroke: #ffffff; stroke-width: 0.8; stroke-linecap: square"/>
   </g>
   <g id="line2d_27">
    <path d="M 97.178698 265.888757 
L 178.159527 265.888757 
" clip-path="url(#p5cd67af20d)" style="fill: none; stroke: #ffffff; stroke-width: 1.2; stroke-linecap: square"/>
   </g>
   <g id="line2d_28">
    <path d="M 108.426036 265.888757 
L 108.426036 252.391953 
" clip-path="url(#p5cd67af20d)" style="fill: none; stroke: #ffffff; stroke-width: 0.8; stroke-linecap: square"/>
   </g>
   <g id="line2d_29">
    <path d="M 128.671243 265.888757 
L 128.671243 252.391953 
" clip-path="url(#p5cd67af20d)" style="fill: none; stroke: #ffffff; stroke-width: 0.8; stroke-linecap: square"/>
   </g>
   <g id="line2d_30">
    <path d="M 148.91645 265.888757 
L 148.91645 252.391953 
" clip-path="url(#p5cd67af20d)" style="fill: none; stroke: #ffffff; stroke-width: 0.8; stroke-linecap: square"/>
   </g>
   <g id="line2d_31">
    <path d="M 169.161657 265.888757 
L 169.161657 252.391953 
" clip-path="url(#p5cd67af20d)" style="fill: none; stroke: #ffffff; stroke-width: 0.8; stroke-linecap: square"/>
   </g>
   <g id="line2d_32">
    <path d="M 99.428166 252.391953 
L 175.910059 252.391953 
" clip-path="url(#p5cd67af20d)" style="fill: none; stroke: #ffffff; stroke-width: 1.2; stroke-linecap: square"/>
   </g>
   <g id="line2d_33">
    <path d="M 99.428166 252.391953 
L 99.428166 238.895148 
" clip-path="url(#p5cd67af20d)" style="fill: none; stroke: #ffffff; stroke-width: 0.8; stroke-linecap: square"/>
   </g>
   <g id="line2d_34">
    <path d="M 119.673373 252.391953 
L 119.673373 238.895148 
" clip-path="url(#p5cd67af20d)" style="fill: none; stroke: #ffffff; stroke-width: 0.8; stroke-linecap: square"/>
   </g>
   <g id="line2d_35">
    <path d="M 139.91858 252.391953 
L 139.91858 238.895148 
" clip-path="url(#p5cd67af20d)" style="fill: none; stroke: #ffffff; stroke-width: 0.8; stroke-linecap: square"/>
   </g>
   <g id="line2d_36">
    <path d="M 160.163787 252.391953 
L 160.163787 238.895148 
" clip-path="url(#p5cd67af20d)" style="fill: none; stroke: #ffffff; stroke-width: 0.8; stroke-linecap: square"/>
   </g>
   <g id="line2d_37">
    <path d="M 101.677633 238.895148 
L 173.660592 238.895148 
" clip-path="url(#p5cd67af20d)" style="fill: none; stroke: #ffffff; stroke-width: 1.2; stroke-linecap: square"/>
   </g>
   <g id="line2d_38">
    <path d="M 112.92497 238.895148 
L 112.92497 225.398343 
" clip-path="url(#p5cd67af20d)" style="fill: none; stroke: #ffffff; stroke-width: 0.8; stroke-linecap: square"/>
   </g>
   <g id="line2d_39">
    <path d="M 133.170178 238.895148 
L 133.170178 225.398343 
" clip-path="url(#p5cd67af20d)" style="fill: none; stroke: #ffffff; stroke-width: 0.8; stroke-linecap: square"/>
   </g>
   <g id="line2d_40">
    <path d="M 153.415385 238.895148 
L 153.415385 225.398343 
" clip-path="url(#p5cd67af20d)" style="fill: none; stroke: #ffffff; stroke-width: 0.8; stroke-linecap: square"/>
   </g>
   <g id="line2d_41">
    <path d="M 103.927101 225.398343 
L 171.411124 225.398343 
" clip-path="url(#p5cd67af20d)" style="fill: none; stroke: #ffffff; stroke-width: 1.2; stroke-linecap: square"/>
   </g>
   <g id="line2d_42">
    <path d="M 103.927101 225.398343 
L 103.927101 211.901538 
" clip-path="url(#p5cd67af20d)" style="fill: none; stroke: #ffffff; stroke-width: 0.8; stroke-linecap: square"/>
   </g>
   <g id="line2d_43">
    <path d="M 124.172308 225.398343 
L 124.172308 211.901538 
" clip-path="url(#p5cd67af20d)" style="fill: none; stroke: #ffffff; stroke-width: 0.8; stroke-linecap: square"/>
   </g>
   <g id="line2d_44">
    <path d="M 144.417515 225.398343 
L 144.417515 211.901538 
" clip-path="url(#p5cd67af20d)" style="fill: none; stroke: #ffffff; stroke-width: 0.8; stroke-linecap: square"/>
   </g>
   <g id="line2d_45">
    <path d="M 164.662722 225.398343 
L 164.662722 211.901538 
" clip-path="url(#p5cd67af20d)" style="fill: none; stroke: #ffffff; stroke-width: 0.8; stroke-linecap: square"/>
   </g>
   <g id="line2d_46">
    <path d="M 106.176568 211.901538 
L 169.161657 211.901538 
" clip-path="url(#p5cd67af20d)" style="fill: none; stroke: #ffffff; stroke-width: 1.2; stroke-linecap: square"/>
   </g>
   <g id="line2d_47">
    <path d="M 117.423905 211.901538 
L 117.423905 198.404734 
" clip-path="url(#p5cd67af20d)" style="fill: none; stroke: #ffffff; stroke-width: 0.8; stroke-linecap: square"/>
   </g>
   <g id="line2d_48">
    <path d="M 137.669112 211.901538 
L 137.669112 198.404734 
" clip-path="url(#p5cd67af20d)" style="fill: none; stroke: #ffffff; stroke-width: 0.8; stroke-linecap: square"/>
   </g>
   <g id="line2d_49">
    <path d="M 157.91432 211.901538 
L 157.91432 198.404734 
" clip-path="url(#p5cd67af20d)" style="fill: none; stroke: #ffffff; stroke-width: 0.8; stroke-linecap: square"/>
   </g>
   <g id="line2d_50">
    <path d="M 108.426036 198.404734 
L 166.912189 198.404734 
" clip-path="url(#p5cd67af20d)" style="fill: none; stroke: #ffffff; stroke-width: 1.2; stroke-linecap: square"/>
   </g>
   <g id="line2d_51">
    <path d="M 108.426036 198.404734 
L 108.426036 184.907929 
" clip-path="url(#p5cd67af20d)" style="fill: none; stroke: #ffffff; stroke-width: 0.8; stroke-linecap: square"/>
   </g>
   <g id="line2d_52">
    <path d="M 128.671243 198.404734 
L 128.671243 184.907929 
" clip-path="url(#p5cd67af20d)" style="fill: none; stroke: #ffffff; stroke-width: 0.8; stroke-linecap: square"/>
   </g>
   <g id="line2d_53">
    <path d="M 148.91645 198.404734 
L 148.91645 184.907929 
" clip-path="url(#p5cd67af20d)" style="fill: none; stroke: #ffffff; stroke-width: 0.8; stroke-linecap: square"/>
   </g>
   <g id="line2d_54">
    <path d="M 110.675503 184.907929 
L 164.662722 184.907929 
" clip-path="url(#p5cd67af20d)" style="fill: none; stroke: #ffffff; stroke-width: 1.2; stroke-linecap: square"/>
   </g>
   <g id="line2d_55">
    <path d="M 121.92284 184.907929 
L 121.92284 171.411124 
" clip-path="url(#p5cd67af20d)" style="fill: none; stroke: #ffffff; stroke-width: 0.8; stroke-linecap: square"/>
   </g>
   <g id="line2d_56">
    <path d="M 142.168047 184.907929 
L 142.168047 171.411124 
" clip-path="url(#p5cd67af20d)" style="fill: none; stroke: #ffffff; stroke-width: 0.8; stroke-linecap: square"/>
   </g>
   <g id="line2d_57">
    <path d="M 162.413254 184.907929 
L 162.413254 171.411124 
" clip-path="url(#p5cd67af20d)" style="fill: none; stroke: #ffffff; stroke-width: 0.8; stroke-linecap: square"/>
   </g>
   <g id="line2d_58">
    <path d="M 112.92497 171.411124 
L 162.413254 171.411124 
" clip-path="url(#p5cd67af20d)" style="fill: none; stroke: #ffffff; stroke-width: 1.2; stroke-linecap: square"/>
   </g>
   <g id="line2d_59">
    <path d="M 112.92497 171.411124 
L 112.92497 157.91432 
" clip-path="url(#p5cd67af20d)" style="fill: none; stroke: #ffffff; stroke-width: 0.8; stroke-linecap: square"/>
   </g>
   <g id="line2d_60">
    <path d="M 133.170178 171.411124 
L 133.170178 157.91432 
" clip-path="url(#p5cd67af20d)" style="fill: none; stroke: #ffffff; stroke-width: 0.8; stroke-linecap: square"/>
   </g>
   <g id="line2d_61">
    <path d="M 153.415385 171.411124 
L 153.415385 157.91432 
" clip-path="url(#p5cd67af20d)" style="fill: none; stroke: #ffffff; stroke-width: 0.8; stroke-linecap: square"/>
   </g>
   <g id="line2d_62">
    <path d="M 115.174438 157.91432 
L 160.163787 157.91432 
" clip-path="url(#p5cd67af20d)" style="fill: none; stroke: #ffffff; stroke-width: 1.2; stroke-linecap: square"/>
   </g>
   <g id="line2d_63">
    <path d="M 47.690414 319.875976 
L 47.690414 265.888757 
" clip-path="url(#p5cd67af20d)" style="fill: none; stroke: #ffffff; stroke-width: 2; stroke-linecap: square"/>
   </g>
   <g id="line2d_64">
    <path d="M 47.690414 297.381302 
L 25.19574 279.385562 
" clip-path="url(#p5cd67af20d)" style="fill: none; stroke: #ffffff; stroke-width: 2; stroke-linecap: square"/>
   </g>
   <g id="line2d_65">
    <path d="M 47.690414 301.880237 
L 70.185089 283.884497 
" clip-path="url(#p5cd67af20d)" style="fill: none; stroke: #ffffff; stroke-width: 2; stroke-linecap: square"/>
   </g>
   <g id="line2d_66">
    <path d="M 79.182959 319.875976 
L 79.182959 271.287479 
" clip-path="url(#p5cd67af20d)" style="fill: none; stroke: #ffffff; stroke-width: 2; stroke-linecap: square"/>
   </g>
   <g id="line2d_67">
    <path d="M 79.182959 299.630769 
L 58.937751 283.434604 
" clip-path="url(#p5cd67af20d)" style="fill: none; stroke: #ffffff; stroke-width: 2; stroke-linecap: square"/>
   </g>
   <g id="line2d_68">
    <path d="M 79.182959 303.679811 
L 99.428166 287.483645 
" clip-path="url(#p5cd67af20d)" style="fill: none; stroke: #ffffff; stroke-width: 2; stroke-linecap: square"/>
   </g>
   <g id="line2d_69">
    <path d="M 196.155266 319.875976 
L 196.155266 271.287479 
" clip-path="url(#p5cd67af20d)" style="fill: none; stroke: #ffffff; stroke-width: 2; stroke-linecap: square"/>
   </g>
   <g id="line2d_70">
    <path d="M 196.155266 299.630769 
L 175.910059 283.434604 
" clip-path="url(#p5cd67af20d)" style="fill: none; stroke: #ffffff; stroke-width: 2; stroke-linecap: square"/>
   </g>
   <g id="line2d_71">
    <path d="M 196.155266 303.679811 
L 216.400473 287.483645 
" clip-path="url(#p5cd67af20d)" style="fill: none; stroke: #ffffff; stroke-width: 2; stroke-linecap: square"/>
   </g>
   <g id="line2d_72">
    <path d="M 227.647811 319.875976 
L 227.647811 265.888757 
" clip-path="url(#p5cd67af20d)" style="fill: none; stroke: #ffffff; stroke-width: 2; stroke-linecap: square"/>
   </g>
   <g id="line2d_73">
    <path d="M 227.647811 297.381302 
L 205.153136 279.385562 
" clip-path="url(#p5cd67af20d)" style="fill: none; stroke: #ffffff; stroke-width: 2; stroke-linecap: square"/>
   </g>
   <g id="line2d_74">
    <path d="M 227.647811 301.880237 
L 250.142485 283.884497 
" clip-path="url(#p5cd67af20d)" style="fill: none; stroke: #ffffff; stroke-width: 2; stroke-linecap: square"/>
   </g>
   <g id="patch_5">
    <path d="M 29.694675 265.888757 
L 38.692544 241.594509 
L 47.690414 225.398343 
L 56.688284 241.594509 
L 65.686154 265.888757 
L 56.688284 249.692592 
L 47.690414 237.545467 
L 38.692544 249.692592 
z
" clip-path="url(#p5cd67af20d)" style="fill: #ffffff; stroke: #ffffff; stroke-width: 1.5; stroke-linejoin: miter"/>
   </g>
   <g id="patch_6">
    <path d="M 62.986793 271.287479 
L 71.084876 249.422656 
L 79.182959 234.846107 
L 87.281041 249.422656 
L 95.379124 271.287479 
L 87.281041 256.71093 
L 79.182959 245.778518 
L 71.084876 256.71093 
z
" clip-path="url(#p5cd67af20d)" style="fill: #ffffff; stroke: #ffffff; stroke-width: 1.5; stroke-linejoin: miter"/>
   </g>
   <g id="patch_7">
    <path d="M 179.959101 271.287479 
L 188.057183 249.422656 
L 196.155266 234.846107 
L 204.253349 249.422656 
L 212.351432 271.287479 
L 204.253349 256.71093 
L 196.155266 245.778518 
L 188.057183 256.71093 
z
" clip-path="url(#p5cd67af20d)" style="fill: #ffffff; stroke: #ffffff; stroke-width: 1.5; stroke-linejoin: miter"/>
   </g>
   <g id="patch_8">
    <path d="M 209.652071 265.888757 
L 218.649941 241.594509 
L 227.647811 225.398343 
L 236.64568 241.594509 
L 245.64355 265.888757 
L 236.64568 249.692592 
L 227.647811 237.545467 
L 218.649941 249.692592 
z
" clip-path="url(#p5cd67af20d)" style="fill: #ffffff; stroke: #ffffff; stroke-width: 1.5; stroke-linejoin: miter"/>
   </g>
  </g>
 </g>
 <defs>
  <clipPath id="p5cd67af20d">
   <rect x="7.2" y="7.2" width="260.938225" height="380.16"/>
  </clipPath>
 </defs>
</svg>
