<?xml version="1.0" encoding="utf-8" standalone="no"?>
<!DOCTYPE svg PUBLIC "-//W3C//DTD SVG 1.1//EN"
  "http://www.w3.org/Graphics/SVG/1.1/DTD/svg11.dtd">
<svg xmlns:xlink="http://www.w3.org/1999/xlink" width="448.523333pt" height="409.68pt" viewBox="0 0 448.523333 409.68" xmlns="http://www.w3.org/2000/svg" version="1.1">
 <metadata>
  <rdf:RDF xmlns:dc="http://purl.org/dc/elements/1.1/" xmlns:cc="http://creativecommons.org/ns#" xmlns:rdf="http://www.w3.org/1999/02/22-rdf-syntax-ns#">
   <cc:Work>
    <dc:type rdf:resource="http://purl.org/dc/dcmitype/StillImage"/>
    <dc:date>2026-02-27T16:23:14.101876</dc:date>
    <dc:format>image/svg+xml</dc:format>
    <dc:creator>
     <cc:Agent>
      <dc:title>Matplotlib v3.9.4, https://matplotlib.org/</dc:title>
     </cc:Agent>
    </dc:creator>
   </cc:Work>
  </rdf:RDF>
 </metadata>
 <defs>
  <style type="text/css">*{stroke-linejoin: round; stroke-linecap: butt}</style>
 </defs>
 <g id="figure_1">
  <g id="patch_1">
   <path d="M 0 409.68 
L 448.523333 409.68 
L 448.523333 0 
L 0 0 
L 0 409.68 
z
" style="fill: none"/>
  </g>
  <g id="axes_1">
   <g id="patch_2">
    <path d="M 224.261667 262.66675 
C 227.817178 262.66675 231.227544 261.25413 233.741671 258.740004 
C 236.255797 256.225877 237.668417 252.815512 237.668417 249.26 
C 237.668417 245.704488 236.255797 242.294123 233.741671 239.779996 
C 231.227544 237.26587 227.817178 235.85325 224.261667 235.85325 
C 220.706155 235.85325 217.295789 237.26587 214.781663 239.779996 
C 212.267536 242.294123 210.854917 245.704488 210.854917 249.26 
C 210.854917 252.815512 212.267536 256.225877 214.781663 258.740004 
C 217.295789 261.25413 220.706155 262.66675 224.261667 262.66675 
z
" clip-path="url(#p893c4451f5)" style="fill: #ffcd00"/>
   </g>
   <g id="patch_3">
    <path d="M 225.242807 246.961488 
Q 274.47078 218.539704 323.698753 190.11792 
L 319.948753 183.62273 
Q 326.528409 185.020116 333.108065 186.417503 
Q 331.028409 192.814345 328.948753 199.211187 
L 325.198753 192.715997 
Q 275.97078 221.13778 226.742807 249.559564 
L 225.242807 246.961488 
z
" clip-path="url(#p893c4451f5)" style="fill: #ffcd00; stroke: #ffcd00; stroke-width: 2.5; stroke-linecap: round"/>
   </g>
   <g id="line2d_1">
    <path d="M 224.261667 249.26 
L 225.178937 250.63602 
L 226.265453 251.877506 
L 227.488497 252.93246 
L 228.746287 253.718921 
L 229.992605 254.232794 
L 231.189741 254.482438 
L 232.308614 254.48608 
L 233.328455 254.2693 
L 234.294556 253.828437 
L 235.132684 253.204836 
L 235.887784 252.373652 
L 236.542982 251.333258 
L 237.113359 249.993821 
L 237.53259 248.421272 
L 237.782952 246.622848 
L 237.845732 244.476298 
L 237.682004 242.103144 
L 237.276682 239.523929 
L 236.61736 236.763077 
L 235.69456 233.848716 
L 234.501957 230.81245 
L 233.036565 227.689083 
L 231.298897 224.516293 
L 229.293077 221.334275 
L 227.167249 218.368869 
L 224.820329 215.469379 
L 222.264789 212.673399 
L 219.693128 210.180132 
L 216.966522 207.843049 
L 214.102026 205.693673 
L 211.320901 203.88439 
L 208.453317 202.290462 
L 205.729223 201.024194 
L 202.962184 199.982769 
L 200.384224 199.236257 
L 197.797467 198.709428 
L 195.216074 198.41455 
L 192.866972 198.357725 
L 190.546164 198.513369 
L 188.265385 198.888734 
L 186.036535 199.490259 
L 183.871624 200.323521 
L 181.969167 201.286071 
L 180.138605 202.446834 
L 178.388985 203.807962 
L 176.729287 205.370908 
L 175.168391 207.136407 
L 173.715042 209.10446 
L 172.377815 211.274311 
L 171.165075 213.644443 
L 170.08495 216.21256 
L 169.145286 218.975582 
L 168.282873 222.235378 
L 167.609074 225.720052 
L 167.132874 229.422183 
L 166.862641 233.3332 
L 166.80608 237.443384 
L 166.970184 241.741894 
L 167.361183 246.216779 
L 167.984501 250.855009 
L 168.844718 255.642507 
L 169.945524 260.564185 
L 171.289688 265.603983 
L 172.879024 270.744921 
L 174.714359 275.96915 
L 176.795513 281.258002 
L 179.12127 286.59206 
L 181.689366 291.951217 
L 184.496472 297.314749 
L 187.538184 302.661388 
L 190.809021 307.969396 
L 194.302419 313.216651 
L 198.010741 318.380729 
L 201.925281 323.438987 
L 206.036276 328.368659 
L 210.332928 333.146942 
L 214.390161 337.340325 
L 218.581491 341.372814 
L 222.896676 345.227593 
L 227.324842 348.88807 
L 231.854504 352.337941 
L 236.473593 355.561243 
L 241.169492 358.542422 
L 245.450621 361.005987 
L 249.77341 363.250566 
L 254.127641 365.2659 
L 258.502824 367.042143 
L 262.888215 368.569898 
L 267.272843 369.840246 
L 271.160622 370.746542 
L 275.031009 371.437259 
L 278.875947 371.907208 
L 282.687299 372.151571 
L 286.456866 372.165918 
L 290.176404 371.946223 
L 293.837639 371.488873 
L 294.742867 371.337019 
L 294.742867 371.337019 
" clip-path="url(#p893c4451f5)" style="fill: none; stroke: #ffcd00; stroke-width: 4.5; stroke-linecap: round"/>
   </g>
   <g id="line2d_2">
    <path d="M 224.261667 249.26 
L 223.344396 247.88398 
L 222.25788 246.642494 
L 221.034836 245.58754 
L 219.777047 244.801079 
L 218.530728 244.287206 
L 217.333593 244.037562 
L 216.21472 244.03392 
L 215.194879 244.2507 
L 214.228778 244.691563 
L 213.39065 245.315164 
L 212.63555 246.146348 
L 211.980351 247.186742 
L 211.409975 248.526179 
L 210.990744 250.098728 
L 210.740381 251.897152 
L 210.677602 254.043702 
L 210.841329 256.416856 
L 211.246651 258.996071 
L 211.905974 261.756923 
L 212.828773 264.671284 
L 214.021376 267.70755 
L 215.486768 270.830917 
L 217.224437 274.003707 
L 219.230256 277.185725 
L 221.356084 280.151131 
L 223.703004 283.050621 
L 226.258544 285.846601 
L 228.830205 288.339868 
L 231.556811 290.676951 
L 234.421308 292.826327 
L 237.202432 294.63561 
L 240.070017 296.229538 
L 242.794111 297.495806 
L 245.56115 298.537231 
L 248.139109 299.283743 
L 250.725866 299.810572 
L 253.307259 300.10545 
L 255.656361 300.162275 
L 257.977169 300.006631 
L 260.257948 299.631266 
L 262.486799 299.029741 
L 264.651709 298.196479 
L 266.554167 297.233929 
L 268.384728 296.073166 
L 270.134348 294.712038 
L 271.794047 293.149092 
L 273.354943 291.383593 
L 274.808291 289.41554 
L 276.145519 287.245689 
L 277.358258 284.875557 
L 278.438384 282.30744 
L 279.378048 279.544418 
L 280.24046 276.284622 
L 280.914259 272.799948 
L 281.39046 269.097817 
L 281.660693 265.1868 
L 281.717253 261.076616 
L 281.553149 256.778106 
L 281.162151 252.303221 
L 280.538832 247.664991 
L 279.678615 242.877493 
L 278.577809 237.955815 
L 277.233645 232.916017 
L 275.64431 227.775079 
L 273.808974 222.55085 
L 271.72782 217.261998 
L 269.402063 211.92794 
L 266.833967 206.568783 
L 264.026861 201.205251 
L 260.985149 195.858612 
L 257.714313 190.550604 
L 254.220914 185.303349 
L 250.512592 180.139271 
L 246.598053 175.081013 
L 242.487057 170.151341 
L 238.190405 165.373058 
L 234.133173 161.179675 
L 229.941843 157.147186 
L 225.626657 153.292407 
L 221.198491 149.63193 
L 216.66883 146.182059 
L 212.04974 142.958757 
L 207.353841 139.977578 
L 203.072712 137.514013 
L 198.749924 135.269434 
L 194.395692 133.2541 
L 190.020509 131.477857 
L 185.635118 129.950102 
L 181.25049 128.679754 
L 177.362711 127.773458 
L 173.492324 127.082741 
L 169.647387 126.612792 
L 165.836035 126.368429 
L 162.066467 126.354082 
L 158.346929 126.573777 
L 154.685694 127.031127 
L 153.780467 127.182981 
L 153.780467 127.182981 
" clip-path="url(#p893c4451f5)" style="fill: none; stroke: #ffcd00; stroke-width: 4.5; stroke-linecap: round"/>
   </g>
   <g id="line2d_3">
    <path d="M 270.795384 161.882442 
L 265.212318 155.896899 
L 259.500909 150.203966 
L 255.14388 146.137063 
L 250.732402 142.251979 
L 246.274252 138.555566 
L 241.77729 135.054341 
L 237.249446 131.754477 
L 232.698703 128.661792 
L 228.133084 125.781739 
L 223.560639 123.119395 
L 218.989431 120.679456 
L 214.427517 118.466223 
L 209.882943 116.483597 
L 205.363721 114.735076 
L 200.877818 113.223741 
L 196.433145 111.952258 
L 192.037537 110.922867 
L 187.698745 110.137385 
L 183.424419 109.597196 
L 179.222094 109.303253 
L 175.099181 109.256073 
L 171.062948 109.455741 
L 167.120512 109.901903 
L 163.278825 110.593774 
L 159.544658 111.530133 
L 155.924597 112.709329 
L 152.425024 114.129284 
L 149.05211 115.787494 
L 145.811801 117.681035 
L 142.709809 119.806568 
L 139.751606 122.160346 
L 136.942406 124.73822 
L 134.287162 127.535643 
L 131.790556 130.547683 
L 129.45699 133.76903 
L 127.290579 137.194005 
L 125.295141 140.816567 
L 123.474195 144.630331 
L 121.830952 148.628572 
L 120.368309 152.804241 
L 119.088845 157.149975 
L 117.994816 161.658113 
L 117.08815 166.320704 
L 116.370447 171.12953 
L 115.842971 176.076111 
L 115.506653 181.151726 
L 115.362086 186.347425 
L 115.409524 191.654048 
L 115.648884 197.062239 
L 116.079744 202.562462 
L 116.701345 208.145019 
L 117.512589 213.800068 
L 118.512047 219.517638 
L 119.697958 225.287648 
L 121.068228 231.099924 
L 122.620444 236.94422 
L 124.968315 244.768605 
L 127.627382 252.607067 
L 130.589313 260.435038 
L 133.844824 268.227986 
L 137.383712 275.961485 
L 141.194886 283.611299 
L 145.266401 291.153453 
L 149.585497 298.564307 
L 154.138637 305.820635 
L 158.91155 312.899696 
L 163.889279 319.779302 
L 169.056222 326.437893 
L 174.396185 332.854598 
L 179.892432 339.009309 
L 185.527738 344.882734 
L 189.834865 349.092102 
L 194.202691 353.125451 
L 198.623516 356.975671 
L 203.089544 360.635972 
L 207.592901 364.099902 
L 212.125648 367.361352 
L 216.679793 370.414573 
L 221.247306 373.254181 
L 225.820133 375.875169 
L 230.390212 378.272917 
L 234.949486 380.443197 
L 239.489916 382.382181 
L 244.003496 384.086453 
L 248.482269 385.553006 
L 252.918337 386.779254 
L 257.30388 387.763037 
L 261.631164 388.502619 
L 265.89256 388.996696 
L 270.080555 389.244398 
L 274.187765 389.245287 
L 278.206949 388.999362 
L 282.131018 388.507056 
L 285.953056 387.769238 
L 289.666323 386.787208 
L 293.264273 385.562698 
L 296.740561 384.097867 
L 300.089058 382.395298 
L 303.30386 380.457992 
L 306.3793 378.289365 
L 309.309955 375.89324 
L 312.090658 373.273844 
L 314.716505 370.435793 
L 317.182868 367.384091 
L 319.485397 364.124121 
L 321.620033 360.661628 
L 323.583012 357.002718 
L 325.370874 353.153842 
L 326.980465 349.121787 
L 328.408949 344.913661 
L 329.653806 340.536884 
L 330.712842 335.999172 
L 331.584189 331.308527 
L 332.266311 326.473219 
L 332.758005 321.501773 
L 333.058405 316.402954 
L 333.16698 311.185753 
L 333.08354 305.859367 
L 332.808231 300.433189 
L 332.34154 294.916785 
L 331.684287 289.319882 
L 330.837634 283.652347 
L 329.803072 277.924174 
L 328.582425 272.145462 
L 327.177845 266.326399 
L 325.59181 260.477246 
L 323.19971 252.649398 
L 323.19971 252.649398 
" clip-path="url(#p893c4451f5)" style="fill: none; stroke: #ffcd00; stroke-width: 4.5; stroke-linecap: round"/>
   </g>
  </g>
  <g id="text_1">
   <!-- CAROLINA -->
   <g style="fill: #ffcd00" transform="translate(121.286667 37.59375) scale(0.4 -0.4)">
    <defs>
     <path id="DejaVuSans-ExtraLight-43" d="M 4122 4278 
L 4122 3919 
Q 3803 4209 3444 4350 
Q 3081 4494 2675 4494 
Q 1794 4494 1328 3938 
Q 859 3381 859 2328 
Q 859 1275 1328 716 
Q 1794 156 2675 156 
Q 3081 156 3444 300 
Q 3803 447 4122 738 
L 4122 359 
Q 3791 134 3419 22 
Q 3050 -91 2638 -91 
Q 1656 -91 1094 556 
Q 531 1206 531 2328 
Q 531 3453 1094 4100 
Q 1656 4750 2638 4750 
Q 3056 4750 3425 4631 
Q 3797 4516 4122 4278 
z
" transform="scale(0.015625)"/>
     <path id="DejaVuSans-ExtraLight-41" d="M 2172 4350 
L 1172 1725 
L 3156 1725 
L 2172 4350 
z
M 1972 4666 
L 2381 4666 
L 4166 0 
L 3809 0 
L 3253 1466 
L 1075 1466 
L 522 0 
L 191 0 
L 1972 4666 
z
" transform="scale(0.015625)"/>
     <path id="DejaVuSans-ExtraLight-52" d="M 2709 2188 
Q 2903 2119 3084 1894 
Q 3213 1731 3450 1275 
L 4103 0 
L 3769 0 
L 3103 1281 
Q 2844 1784 2606 1947 
Q 2363 2109 1947 2109 
L 1100 2109 
L 1100 0 
L 788 0 
L 788 4666 
L 2053 4666 
Q 2769 4666 3122 4331 
Q 3475 3997 3475 3322 
Q 3475 2888 3291 2591 
Q 3116 2300 2709 2188 
z
M 1100 4409 
L 1100 2369 
L 2131 2369 
Q 2631 2369 2887 2628 
Q 3144 2888 3144 3394 
Q 3144 3897 2887 4153 
Q 2631 4409 2131 4409 
L 1100 4409 
z
" transform="scale(0.015625)"/>
     <path id="DejaVuSans-ExtraLight-4f" d="M 3738 3922 
Q 3288 4506 2522 4506 
Q 1756 4506 1303 3922 
Q 853 3338 853 2328 
Q 853 1325 1303 741 
Q 1756 156 2522 156 
Q 3288 156 3738 741 
Q 4184 1325 4184 2328 
Q 4184 3338 3738 3922 
z
M 2522 4750 
Q 3428 4750 3972 4094 
Q 4516 3434 4516 2328 
Q 4516 1225 3972 569 
Q 3428 -91 2522 -91 
Q 1613 -91 1066 566 
Q 522 1222 522 2328 
Q 522 3434 1066 4094 
Q 1613 4750 2522 4750 
z
" transform="scale(0.015625)"/>
     <path id="DejaVuSans-ExtraLight-4c" d="M 781 4666 
L 1094 4666 
L 1094 256 
L 3366 256 
L 3366 0 
L 781 0 
L 781 4666 
z
" transform="scale(0.015625)"/>
     <path id="DejaVuSans-ExtraLight-49" d="M 775 4666 
L 1100 4666 
L 1100 0 
L 775 0 
L 775 4666 
z
" transform="scale(0.015625)"/>
     <path id="DejaVuSans-ExtraLight-4e" d="M 775 4666 
L 1238 4666 
L 3500 400 
L 3500 4666 
L 3813 4666 
L 3813 0 
L 3369 0 
L 1094 4294 
L 1094 0 
L 775 0 
L 775 4666 
z
" transform="scale(0.015625)"/>
    </defs>
    <use xlink:href="#DejaVuSans-ExtraLight-43"/>
    <use xlink:href="#DejaVuSans-ExtraLight-41" x="69.824219"/>
    <use xlink:href="#DejaVuSans-ExtraLight-52" x="138.232422"/>
    <use xlink:href="#DejaVuSans-ExtraLight-4f" x="207.714844"/>
    <use xlink:href="#DejaVuSans-ExtraLight-4c" x="286.425781"/>
    <use xlink:href="#DejaVuSans-ExtraLight-49" x="342.138672"/>
    <use xlink:href="#DejaVuSans-ExtraLight-4e" x="371.630859"/>
    <use xlink:href="#DejaVuSans-ExtraLight-41" x="446.435547"/>
   </g>
  </g>
  <g id="text_2">
   <!-- Appropriately ridiculous acronym -->
   <g style="fill: #ffcd00" transform="translate(57.853854 75.316875) scale(0.2 -0.2)">
    <defs>
     <path id="DejaVuSans-Oblique-41" d="M 2356 4666 
L 3072 4666 
L 3938 0 
L 3278 0 
L 3084 1197 
L 984 1197 
L 325 0 
L -341 0 
L 2356 4666 
z
M 2584 4044 
L 1275 1722 
L 2988 1722 
L 2584 4044 
z
" transform="scale(0.015625)"/>
     <path id="DejaVuSans-Oblique-70" d="M 3175 2156 
Q 3175 2616 2975 2859 
Q 2775 3103 2400 3103 
Q 2144 3103 1911 2972 
Q 1678 2841 1497 2591 
Q 1319 2344 1212 1994 
Q 1106 1644 1106 1300 
Q 1106 863 1306 627 
Q 1506 391 1875 391 
Q 2147 391 2380 519 
Q 2613 647 2778 891 
Q 2956 1147 3065 1494 
Q 3175 1841 3175 2156 
z
M 1394 2969 
Q 1625 3272 1939 3428 
Q 2253 3584 2638 3584 
Q 3175 3584 3472 3232 
Q 3769 2881 3769 2247 
Q 3769 1728 3584 1258 
Q 3400 788 3053 416 
Q 2822 169 2531 39 
Q 2241 -91 1919 -91 
Q 1547 -91 1294 64 
Q 1041 219 916 525 
L 556 -1331 
L -19 -1331 
L 922 3500 
L 1497 3500 
L 1394 2969 
z
" transform="scale(0.015625)"/>
     <path id="DejaVuSans-Oblique-72" d="M 2853 2969 
Q 2766 3016 2653 3041 
Q 2541 3066 2413 3066 
Q 1953 3066 1609 2717 
Q 1266 2369 1153 1784 
L 800 0 
L 225 0 
L 909 3500 
L 1484 3500 
L 1375 2956 
Q 1603 3259 1920 3421 
Q 2238 3584 2597 3584 
Q 2691 3584 2781 3573 
Q 2872 3563 2963 3538 
L 2853 2969 
z
" transform="scale(0.015625)"/>
     <path id="DejaVuSans-Oblique-6f" d="M 1625 -91 
Q 1009 -91 651 289 
Q 294 669 294 1325 
Q 294 1706 417 2101 
Q 541 2497 738 2766 
Q 1047 3184 1428 3384 
Q 1809 3584 2291 3584 
Q 2888 3584 3255 3212 
Q 3622 2841 3622 2241 
Q 3622 1825 3500 1412 
Q 3378 1000 3181 728 
Q 2875 309 2494 109 
Q 2113 -91 1625 -91 
z
M 891 1344 
Q 891 869 1089 633 
Q 1288 397 1691 397 
Q 2269 397 2648 901 
Q 3028 1406 3028 2181 
Q 3028 2634 2825 2865 
Q 2622 3097 2228 3097 
Q 1903 3097 1650 2945 
Q 1397 2794 1197 2484 
Q 1050 2253 970 1956 
Q 891 1659 891 1344 
z
" transform="scale(0.015625)"/>
     <path id="DejaVuSans-Oblique-69" d="M 1172 4863 
L 1747 4863 
L 1606 4134 
L 1031 4134 
L 1172 4863 
z
M 909 3500 
L 1484 3500 
L 800 0 
L 225 0 
L 909 3500 
z
" transform="scale(0.015625)"/>
     <path id="DejaVuSans-Oblique-61" d="M 3438 1997 
L 3047 0 
L 2472 0 
L 2578 531 
Q 2325 219 2001 64 
Q 1678 -91 1281 -91 
Q 834 -91 548 182 
Q 263 456 263 884 
Q 263 1497 752 1853 
Q 1241 2209 2100 2209 
L 2900 2209 
L 2931 2363 
Q 2938 2388 2941 2417 
Q 2944 2447 2944 2509 
Q 2944 2788 2717 2942 
Q 2491 3097 2081 3097 
Q 1800 3097 1504 3025 
Q 1209 2953 897 2809 
L 997 3341 
Q 1322 3463 1633 3523 
Q 1944 3584 2234 3584 
Q 2853 3584 3176 3315 
Q 3500 3047 3500 2534 
Q 3500 2431 3484 2292 
Q 3469 2153 3438 1997 
z
M 2816 1759 
L 2241 1759 
Q 1534 1759 1195 1570 
Q 856 1381 856 984 
Q 856 709 1029 553 
Q 1203 397 1509 397 
Q 1978 397 2328 733 
Q 2678 1069 2791 1631 
L 2816 1759 
z
" transform="scale(0.015625)"/>
     <path id="DejaVuSans-Oblique-74" d="M 2706 3500 
L 2619 3053 
L 1472 3053 
L 1100 1153 
Q 1081 1047 1072 975 
Q 1063 903 1063 863 
Q 1063 663 1183 572 
Q 1303 481 1569 481 
L 2150 481 
L 2053 0 
L 1503 0 
Q 991 0 739 200 
Q 488 400 488 806 
Q 488 878 497 964 
Q 506 1050 525 1153 
L 897 3053 
L 409 3053 
L 500 3500 
L 978 3500 
L 1172 4494 
L 1747 4494 
L 1556 3500 
L 2706 3500 
z
" transform="scale(0.015625)"/>
     <path id="DejaVuSans-Oblique-65" d="M 3078 2063 
Q 3088 2113 3092 2166 
Q 3097 2219 3097 2272 
Q 3097 2653 2873 2875 
Q 2650 3097 2266 3097 
Q 1838 3097 1509 2826 
Q 1181 2556 1013 2059 
L 3078 2063 
z
M 3578 1613 
L 903 1613 
Q 884 1494 878 1425 
Q 872 1356 872 1306 
Q 872 872 1139 634 
Q 1406 397 1894 397 
Q 2269 397 2603 481 
Q 2938 566 3225 728 
L 3116 159 
Q 2806 34 2476 -28 
Q 2147 -91 1806 -91 
Q 1078 -91 686 257 
Q 294 606 294 1247 
Q 294 1794 489 2264 
Q 684 2734 1063 3103 
Q 1306 3334 1642 3459 
Q 1978 3584 2356 3584 
Q 2950 3584 3301 3228 
Q 3653 2872 3653 2272 
Q 3653 2128 3634 1964 
Q 3616 1800 3578 1613 
z
" transform="scale(0.015625)"/>
     <path id="DejaVuSans-Oblique-6c" d="M 1172 4863 
L 1747 4863 
L 800 0 
L 225 0 
L 1172 4863 
z
" transform="scale(0.015625)"/>
     <path id="DejaVuSans-Oblique-79" d="M 1588 -325 
Q 1188 -997 936 -1164 
Q 684 -1331 294 -1331 
L -159 -1331 
L -63 -850 
L 269 -850 
Q 509 -850 678 -719 
Q 847 -588 1056 -206 
L 1234 128 
L 459 3500 
L 1069 3500 
L 1650 819 
L 3256 3500 
L 3859 3500 
L 1588 -325 
z
" transform="scale(0.015625)"/>
     <path id="DejaVuSans-Oblique-20" transform="scale(0.015625)"/>
     <path id="DejaVuSans-Oblique-64" d="M 2675 525 
Q 2444 222 2128 65 
Q 1813 -91 1428 -91 
Q 903 -91 598 267 
Q 294 625 294 1247 
Q 294 1766 478 2236 
Q 663 2706 1013 3078 
Q 1244 3325 1534 3454 
Q 1825 3584 2144 3584 
Q 2481 3584 2739 3421 
Q 2997 3259 3138 2956 
L 3513 4863 
L 4091 4863 
L 3144 0 
L 2566 0 
L 2675 525 
z
M 891 1350 
Q 891 897 1095 644 
Q 1300 391 1663 391 
Q 1931 391 2161 520 
Q 2391 650 2566 903 
Q 2750 1166 2856 1509 
Q 2963 1853 2963 2188 
Q 2963 2622 2758 2865 
Q 2553 3109 2194 3109 
Q 1922 3109 1687 2981 
Q 1453 2853 1288 2613 
Q 1106 2353 998 2009 
Q 891 1666 891 1350 
z
" transform="scale(0.015625)"/>
     <path id="DejaVuSans-Oblique-63" d="M 3431 3366 
L 3316 2797 
Q 3109 2947 2876 3022 
Q 2644 3097 2394 3097 
Q 2119 3097 1870 3000 
Q 1622 2903 1453 2725 
Q 1184 2453 1037 2087 
Q 891 1722 891 1331 
Q 891 859 1127 628 
Q 1363 397 1844 397 
Q 2081 397 2348 469 
Q 2616 541 2906 684 
L 2797 116 
Q 2547 13 2283 -39 
Q 2019 -91 1741 -91 
Q 1044 -91 669 257 
Q 294 606 294 1253 
Q 294 1797 489 2255 
Q 684 2713 1069 3078 
Q 1331 3328 1684 3456 
Q 2038 3584 2456 3584 
Q 2700 3584 2940 3529 
Q 3181 3475 3431 3366 
z
" transform="scale(0.015625)"/>
     <path id="DejaVuSans-Oblique-75" d="M 428 1388 
L 838 3500 
L 1416 3500 
L 1006 1409 
Q 975 1256 961 1147 
Q 947 1038 947 966 
Q 947 700 1109 554 
Q 1272 409 1569 409 
Q 2031 409 2368 721 
Q 2706 1034 2809 1563 
L 3194 3500 
L 3769 3500 
L 3091 0 
L 2516 0 
L 2631 550 
Q 2388 244 2052 76 
Q 1716 -91 1338 -91 
Q 878 -91 622 161 
Q 366 413 366 863 
Q 366 956 381 1097 
Q 397 1238 428 1388 
z
" transform="scale(0.015625)"/>
     <path id="DejaVuSans-Oblique-73" d="M 3200 3397 
L 3091 2853 
Q 2863 2978 2609 3040 
Q 2356 3103 2088 3103 
Q 1634 3103 1373 2948 
Q 1113 2794 1113 2528 
Q 1113 2219 1719 2053 
Q 1766 2041 1788 2034 
L 1972 1978 
Q 2547 1819 2739 1644 
Q 2931 1469 2931 1166 
Q 2931 609 2489 259 
Q 2047 -91 1331 -91 
Q 1053 -91 747 -37 
Q 441 16 72 128 
L 184 722 
Q 500 559 806 475 
Q 1113 391 1394 391 
Q 1816 391 2080 572 
Q 2344 753 2344 1031 
Q 2344 1331 1650 1516 
L 1591 1531 
L 1394 1581 
Q 956 1697 753 1886 
Q 550 2075 550 2369 
Q 550 2928 970 3256 
Q 1391 3584 2113 3584 
Q 2397 3584 2667 3537 
Q 2938 3491 3200 3397 
z
" transform="scale(0.015625)"/>
     <path id="DejaVuSans-Oblique-6e" d="M 3566 2113 
L 3156 0 
L 2578 0 
L 2988 2091 
Q 3016 2238 3031 2350 
Q 3047 2463 3047 2528 
Q 3047 2791 2881 2937 
Q 2716 3084 2419 3084 
Q 1956 3084 1622 2776 
Q 1288 2469 1184 1941 
L 800 0 
L 225 0 
L 903 3500 
L 1478 3500 
L 1363 2950 
Q 1603 3253 1940 3418 
Q 2278 3584 2650 3584 
Q 3113 3584 3367 3334 
Q 3622 3084 3622 2631 
Q 3622 2519 3608 2391 
Q 3594 2263 3566 2113 
z
" transform="scale(0.015625)"/>
     <path id="DejaVuSans-Oblique-6d" d="M 5747 2113 
L 5338 0 
L 4763 0 
L 5166 2094 
Q 5191 2228 5203 2325 
Q 5216 2422 5216 2491 
Q 5216 2772 5059 2928 
Q 4903 3084 4622 3084 
Q 4203 3084 3875 2770 
Q 3547 2456 3450 1953 
L 3066 0 
L 2491 0 
L 2900 2094 
Q 2925 2209 2937 2307 
Q 2950 2406 2950 2484 
Q 2950 2769 2794 2926 
Q 2638 3084 2363 3084 
Q 1938 3084 1609 2770 
Q 1281 2456 1184 1953 
L 800 0 
L 225 0 
L 909 3500 
L 1484 3500 
L 1375 2956 
Q 1609 3263 1923 3423 
Q 2238 3584 2597 3584 
Q 2978 3584 3223 3384 
Q 3469 3184 3519 2828 
Q 3781 3197 4126 3390 
Q 4472 3584 4856 3584 
Q 5306 3584 5551 3325 
Q 5797 3066 5797 2591 
Q 5797 2488 5784 2364 
Q 5772 2241 5747 2113 
z
" transform="scale(0.015625)"/>
    </defs>
    <use xlink:href="#DejaVuSans-Oblique-41"/>
    <use xlink:href="#DejaVuSans-Oblique-70" x="68.408203"/>
    <use xlink:href="#DejaVuSans-Oblique-70" x="131.884766"/>
    <use xlink:href="#DejaVuSans-Oblique-72" x="195.361328"/>
    <use xlink:href="#DejaVuSans-Oblique-6f" x="236.474609"/>
    <use xlink:href="#DejaVuSans-Oblique-70" x="297.65625"/>
    <use xlink:href="#DejaVuSans-Oblique-72" x="361.132812"/>
    <use xlink:href="#DejaVuSans-Oblique-69" x="402.246094"/>
    <use xlink:href="#DejaVuSans-Oblique-61" x="430.029297"/>
    <use xlink:href="#DejaVuSans-Oblique-74" x="491.308594"/>
    <use xlink:href="#DejaVuSans-Oblique-65" x="530.517578"/>
    <use xlink:href="#DejaVuSans-Oblique-6c" x="592.041016"/>
    <use xlink:href="#DejaVuSans-Oblique-79" x="619.824219"/>
    <use xlink:href="#DejaVuSans-Oblique-20" x="679.003906"/>
    <use xlink:href="#DejaVuSans-Oblique-72" x="710.791016"/>
    <use xlink:href="#DejaVuSans-Oblique-69" x="751.904297"/>
    <use xlink:href="#DejaVuSans-Oblique-64" x="779.6875"/>
    <use xlink:href="#DejaVuSans-Oblique-69" x="843.164062"/>
    <use xlink:href="#DejaVuSans-Oblique-63" x="870.947266"/>
    <use xlink:href="#DejaVuSans-Oblique-75" x="925.927734"/>
    <use xlink:href="#DejaVuSans-Oblique-6c" x="989.306641"/>
    <use xlink:href="#DejaVuSans-Oblique-6f" x="1017.089844"/>
    <use xlink:href="#DejaVuSans-Oblique-75" x="1078.271484"/>
    <use xlink:href="#DejaVuSans-Oblique-73" x="1141.650391"/>
    <use xlink:href="#DejaVuSans-Oblique-20" x="1193.75"/>
    <use xlink:href="#DejaVuSans-Oblique-61" x="1225.537109"/>
    <use xlink:href="#DejaVuSans-Oblique-63" x="1286.816406"/>
    <use xlink:href="#DejaVuSans-Oblique-72" x="1341.796875"/>
    <use xlink:href="#DejaVuSans-Oblique-6f" x="1382.910156"/>
    <use xlink:href="#DejaVuSans-Oblique-6e" x="1444.091797"/>
    <use xlink:href="#DejaVuSans-Oblique-79" x="1507.470703"/>
    <use xlink:href="#DejaVuSans-Oblique-6d" x="1566.650391"/>
   </g>
  </g>
 </g>
 <defs>
  <clipPath id="p893c4451f5">
   <rect x="7.2" y="96.04" width="434.123333" height="306.44"/>
  </clipPath>
 </defs>
</svg>
