<?xml version="1.0" encoding="utf-8" standalone="no"?>
<!DOCTYPE svg PUBLIC "-//W3C//DTD SVG 1.1//EN"
  "http://www.w3.org/Graphics/SVG/1.1/DTD/svg11.dtd">
<svg xmlns:xlink="http://www.w3.org/1999/xlink" width="347.215625pt" height="409.68pt" viewBox="0 0 347.215625 409.68" xmlns="http://www.w3.org/2000/svg" version="1.1">
 <metadata>
  <rdf:RDF xmlns:dc="http://purl.org/dc/elements/1.1/" xmlns:cc="http://creativecommons.org/ns#" xmlns:rdf="http://www.w3.org/1999/02/22-rdf-syntax-ns#">
   <cc:Work>
    <dc:type rdf:resource="http://purl.org/dc/dcmitype/StillImage"/>
    <dc:date>2026-03-03T13:34:15.784728</dc:date>
    <dc:format>image/svg+xml</dc:format>
    <dc:creator>
     <cc:Agent>
      <dc:title>Matplotlib v3.9.4, https://matplotlib.org/</dc:title>
     </cc:Agent>
    </dc:creator>
   </cc:Work>
  </rdf:RDF>
 </metadata>
 <defs>
  <style type="text/css">*{stroke-linejoin: round; stroke-linecap: butt}</style>
 </defs>
 <g id="figure_1">
  <g id="patch_1">
   <path d="M 0 409.68 
L 347.215625 409.68 
L 347.215625 0 
L 0 0 
L 0 409.68 
z
" style="fill: none"/>
  </g>
  <g id="axes_1">
   <g id="patch_2">
    <path d="M 173.607813 178.180426 
C 175.194719 178.180426 176.716843 177.549941 177.838955 176.427829 
C 178.961068 175.305717 179.591552 173.783593 179.591552 172.196686 
C 179.591552 170.60978 178.961068 169.087656 177.838955 167.965544 
C 176.716843 166.843431 175.194719 166.212947 173.607813 166.212947 
C 172.020906 166.212947 170.498782 166.843431 169.37667 167.965544 
C 168.254557 169.087656 167.624073 170.60978 167.624073 172.196686 
C 167.624073 173.783593 168.254557 175.305717 169.37667 176.427829 
C 170.498782 177.549941 172.020906 178.180426 173.607813 178.180426 
z
" clip-path="url(#p9c1e1049f5)" style="fill: #ffcd00"/>
   </g>
   <g id="patch_3">
    <path d="M 174.586856 169.899384 
Q 199.931356 155.26673 225.275857 140.634076 
L 221.525857 134.138886 
Q 228.106501 135.535702 234.687144 136.932518 
Q 232.606501 143.32993 230.525857 149.727343 
L 226.775857 143.232153 
Q 201.431356 157.864807 176.086856 172.497461 
L 174.586856 169.899384 
z
" clip-path="url(#p9c1e1049f5)" style="fill: #ffcd00; stroke: #ffcd00; stroke-width: 2.5; stroke-linecap: round"/>
   </g>
   <g id="patch_4">
    <path d="M 155.475268 217.528047 
L 191.740357 217.528047 
L 213.49941 348.082367 
L 133.716215 348.082367 
L 155.475268 217.528047 
z
" clip-path="url(#p9c1e1049f5)" style="fill: none; stroke: #000000; stroke-width: 2.5; stroke-linejoin: miter"/>
   </g>
   <g id="line2d_1">
    <path d="M 173.607813 172.196686 
L 174.266917 173.117403 
L 175.056125 173.849827 
L 175.882217 174.328401 
L 176.683758 174.547542 
L 177.415572 174.524438 
L 178.048626 174.292152 
L 178.614256 173.845748 
L 179.084779 173.179262 
L 179.43359 172.292567 
L 179.640978 171.139045 
L 179.660078 169.704543 
L 179.454242 168.056311 
L 179.004373 166.226866 
L 178.263687 164.175478 
L 177.282774 162.109182 
L 176.039581 160.005517 
L 174.607502 158.005562 
L 172.956392 156.080966 
L 171.188096 154.360431 
L 169.348907 152.876057 
L 167.482357 151.647786 
L 165.627795 150.684234 
L 163.819414 149.983905 
L 162.085694 149.536651 
L 160.353368 149.31953 
L 158.7384 149.341467 
L 157.254708 149.575258 
L 155.822917 150.024938 
L 154.459612 150.697749 
L 153.258504 151.535955 
L 152.14582 152.577831 
L 151.134969 153.824586 
L 150.239027 155.275747 
L 149.470625 156.929111 
L 148.805147 158.911061 
L 148.31226 161.111458 
L 148.004679 163.520897 
L 147.893916 166.127648 
L 147.990123 168.917687 
L 148.328779 172.0647 
L 148.919211 175.378048 
L 149.767555 178.832916 
L 150.877573 182.402018 
L 152.25053 186.0558 
L 153.88509 189.762656 
L 155.777244 193.489184 
L 157.920254 197.200458 
L 160.304629 200.86033 
L 162.758304 204.224792 
L 165.402549 207.479561 
L 168.222856 210.593114 
L 171.01211 213.355862 
L 173.926392 215.941258 
L 176.949073 218.324187 
L 179.852197 220.344032 
L 182.818487 222.147082 
L 185.831462 223.715021 
L 188.655939 224.945269 
L 191.491415 225.944803 
L 194.323069 226.701516 
L 196.920375 227.174884 
L 199.489297 227.423989 
L 202.017486 227.441786 
L 204.492484 227.222135 
L 205.3035 227.095228 
L 205.3035 227.095228 
" clip-path="url(#p9c1e1049f5)" style="fill: none; stroke: #ffcd00; stroke-width: 4.5; stroke-linecap: round"/>
   </g>
   <g id="line2d_2">
    <path d="M 173.607813 172.196686 
L 172.948708 171.27597 
L 172.1595 170.543546 
L 171.333408 170.064972 
L 170.531867 169.845831 
L 169.800053 169.868935 
L 169.166999 170.101221 
L 168.601369 170.547625 
L 168.130846 171.214111 
L 167.782035 172.100806 
L 167.574647 173.254327 
L 167.555547 174.68883 
L 167.761383 176.337062 
L 168.211252 178.166507 
L 168.951938 180.217894 
L 169.932851 182.284191 
L 171.176044 184.387856 
L 172.608123 186.387811 
L 174.259233 188.312406 
L 176.027529 190.032942 
L 177.866718 191.517316 
L 179.733268 192.745587 
L 181.58783 193.709139 
L 183.396211 194.409468 
L 185.129931 194.856722 
L 186.862257 195.073843 
L 188.477225 195.051906 
L 189.960917 194.818115 
L 191.392708 194.368435 
L 192.756013 193.695624 
L 193.957121 192.857417 
L 195.069805 191.815541 
L 196.080656 190.568787 
L 196.976598 189.117626 
L 197.745 187.464262 
L 198.410478 185.482312 
L 198.903365 183.281915 
L 199.210946 180.872476 
L 199.321709 178.265724 
L 199.225502 175.475686 
L 198.886846 172.328673 
L 198.296414 169.015324 
L 197.44807 165.560457 
L 196.338052 161.991355 
L 194.965095 158.337573 
L 193.330535 154.630717 
L 191.438381 150.904189 
L 189.295371 147.192915 
L 186.910996 143.533042 
L 184.457321 140.168581 
L 181.813076 136.913811 
L 178.992769 133.800259 
L 176.203515 131.037511 
L 173.289233 128.452115 
L 170.266552 126.069186 
L 167.363428 124.049341 
L 164.397138 122.246291 
L 161.384163 120.678352 
L 158.559686 119.448103 
L 155.72421 118.448569 
L 152.892556 117.691857 
L 150.29525 117.218488 
L 147.726328 116.969384 
L 145.198139 116.951587 
L 142.723141 117.171238 
L 141.912125 117.298145 
L 141.912125 117.298145 
" clip-path="url(#p9c1e1049f5)" style="fill: none; stroke: #ffcd00; stroke-width: 4.5; stroke-linecap: round"/>
   </g>
   <g id="line2d_3">
    <path d="M 194.288281 133.044628 
L 191.147403 129.696252 
L 187.920646 126.555973 
L 184.623808 123.639166 
L 181.273032 120.960113 
L 177.884725 118.531931 
L 174.475476 116.366511 
L 171.061979 114.474454 
L 167.660947 112.865025 
L 164.289033 111.546104 
L 160.962747 110.524149 
L 157.698376 109.804164 
L 155.14221 109.448013 
L 152.643918 109.288524 
L 150.211329 109.326196 
L 147.852068 109.560912 
L 145.573528 109.991936 
L 143.382851 110.617917 
L 141.286902 111.436894 
L 139.292251 112.446298 
L 137.405149 113.642968 
L 135.631511 115.023151 
L 133.976894 116.582524 
L 132.446486 118.316198 
L 131.045082 120.218739 
L 129.777075 122.284186 
L 128.646439 124.506064 
L 127.656716 126.877411 
L 126.81101 129.390793 
L 126.111971 132.038334 
L 125.447715 135.523742 
L 125.019268 139.188714 
L 124.828727 143.015303 
L 124.877024 146.984775 
L 125.163925 151.077693 
L 125.688023 155.274016 
L 126.446752 159.553199 
L 127.436398 163.894289 
L 128.652115 168.27603 
L 130.087951 172.676967 
L 131.736875 177.075554 
L 133.590813 181.450251 
L 135.640688 185.77964 
L 137.876462 190.042522 
L 140.28719 194.218025 
L 142.861067 198.285704 
L 145.58549 202.225642 
L 148.447121 206.018549 
L 151.431946 209.645851 
L 154.525352 213.08979 
L 157.712193 216.333503 
L 160.976863 219.361106 
L 164.30338 222.157777 
L 167.675453 224.709821 
L 171.076574 227.004743 
L 174.490089 229.031305 
L 177.899283 230.779587 
L 181.287465 232.241026 
L 184.638045 233.408468 
L 187.934617 234.276196 
L 190.522131 234.751679 
L 193.056634 235.031108 
L 195.530182 235.113606 
L 197.935023 234.998916 
L 200.263619 234.687395 
L 202.508673 234.180021 
L 204.663148 233.478385 
L 206.720292 232.584684 
L 208.673657 231.501719 
L 210.517122 230.232886 
L 212.244909 228.782161 
L 213.851603 227.15409 
L 215.332168 225.353776 
L 216.681963 223.386861 
L 217.89676 221.25951 
L 218.972749 218.978391 
L 219.906559 216.550652 
L 220.695264 213.983903 
L 221.473368 210.592277 
L 222.017106 207.012653 
L 222.323815 203.262559 
L 222.391994 199.360355 
L 222.22131 195.325149 
L 221.812597 191.176698 
L 221.167857 186.935315 
L 220.290247 182.621766 
L 219.184064 178.257172 
L 217.854723 173.862904 
L 217.854723 173.862904 
" clip-path="url(#p9c1e1049f5)" style="fill: none; stroke: #ffcd00; stroke-width: 4.5; stroke-linecap: round"/>
   </g>
   <g id="line2d_4">
    <path d="M 133.716215 348.082367 
L 213.49941 348.082367 
" clip-path="url(#p9c1e1049f5)" style="fill: none; stroke: #c00a35; stroke-width: 1.2; stroke-linecap: square"/>
   </g>
   <g id="line2d_5">
    <path d="M 142.782487 348.082367 
L 142.782487 337.20284 
" clip-path="url(#p9c1e1049f5)" style="fill: none; stroke: #c00a35; stroke-width: 0.8; stroke-linecap: square"/>
   </g>
   <g id="line2d_6">
    <path d="M 159.101777 348.082367 
L 159.101777 337.20284 
" clip-path="url(#p9c1e1049f5)" style="fill: none; stroke: #c00a35; stroke-width: 0.8; stroke-linecap: square"/>
   </g>
   <g id="line2d_7">
    <path d="M 175.421067 348.082367 
L 175.421067 337.20284 
" clip-path="url(#p9c1e1049f5)" style="fill: none; stroke: #c00a35; stroke-width: 0.8; stroke-linecap: square"/>
   </g>
   <g id="line2d_8">
    <path d="M 191.740357 348.082367 
L 191.740357 337.20284 
" clip-path="url(#p9c1e1049f5)" style="fill: none; stroke: #c00a35; stroke-width: 0.8; stroke-linecap: square"/>
   </g>
   <g id="line2d_9">
    <path d="M 208.059647 348.082367 
L 208.059647 337.20284 
" clip-path="url(#p9c1e1049f5)" style="fill: none; stroke: #c00a35; stroke-width: 0.8; stroke-linecap: square"/>
   </g>
   <g id="line2d_10">
    <path d="M 135.529469 337.20284 
L 211.686156 337.20284 
" clip-path="url(#p9c1e1049f5)" style="fill: none; stroke: #c00a35; stroke-width: 1.2; stroke-linecap: square"/>
   </g>
   <g id="line2d_11">
    <path d="M 135.529469 337.20284 
L 135.529469 326.323314 
" clip-path="url(#p9c1e1049f5)" style="fill: none; stroke: #c00a35; stroke-width: 0.8; stroke-linecap: square"/>
   </g>
   <g id="line2d_12">
    <path d="M 151.848759 337.20284 
L 151.848759 326.323314 
" clip-path="url(#p9c1e1049f5)" style="fill: none; stroke: #c00a35; stroke-width: 0.8; stroke-linecap: square"/>
   </g>
   <g id="line2d_13">
    <path d="M 168.168049 337.20284 
L 168.168049 326.323314 
" clip-path="url(#p9c1e1049f5)" style="fill: none; stroke: #c00a35; stroke-width: 0.8; stroke-linecap: square"/>
   </g>
   <g id="line2d_14">
    <path d="M 184.487339 337.20284 
L 184.487339 326.323314 
" clip-path="url(#p9c1e1049f5)" style="fill: none; stroke: #c00a35; stroke-width: 0.8; stroke-linecap: square"/>
   </g>
   <g id="line2d_15">
    <path d="M 200.806629 337.20284 
L 200.806629 326.323314 
" clip-path="url(#p9c1e1049f5)" style="fill: none; stroke: #c00a35; stroke-width: 0.8; stroke-linecap: square"/>
   </g>
   <g id="line2d_16">
    <path d="M 137.342724 326.323314 
L 209.872901 326.323314 
" clip-path="url(#p9c1e1049f5)" style="fill: none; stroke: #c00a35; stroke-width: 1.2; stroke-linecap: square"/>
   </g>
   <g id="line2d_17">
    <path d="M 146.408996 326.323314 
L 146.408996 315.443787 
" clip-path="url(#p9c1e1049f5)" style="fill: none; stroke: #c00a35; stroke-width: 0.8; stroke-linecap: square"/>
   </g>
   <g id="line2d_18">
    <path d="M 162.728286 326.323314 
L 162.728286 315.443787 
" clip-path="url(#p9c1e1049f5)" style="fill: none; stroke: #c00a35; stroke-width: 0.8; stroke-linecap: square"/>
   </g>
   <g id="line2d_19">
    <path d="M 179.047576 326.323314 
L 179.047576 315.443787 
" clip-path="url(#p9c1e1049f5)" style="fill: none; stroke: #c00a35; stroke-width: 0.8; stroke-linecap: square"/>
   </g>
   <g id="line2d_20">
    <path d="M 195.366866 326.323314 
L 195.366866 315.443787 
" clip-path="url(#p9c1e1049f5)" style="fill: none; stroke: #c00a35; stroke-width: 0.8; stroke-linecap: square"/>
   </g>
   <g id="line2d_21">
    <path d="M 139.155978 315.443787 
L 208.059647 315.443787 
" clip-path="url(#p9c1e1049f5)" style="fill: none; stroke: #c00a35; stroke-width: 1.2; stroke-linecap: square"/>
   </g>
   <g id="line2d_22">
    <path d="M 139.155978 315.443787 
L 139.155978 304.56426 
" clip-path="url(#p9c1e1049f5)" style="fill: none; stroke: #c00a35; stroke-width: 0.8; stroke-linecap: square"/>
   </g>
   <g id="line2d_23">
    <path d="M 155.475268 315.443787 
L 155.475268 304.56426 
" clip-path="url(#p9c1e1049f5)" style="fill: none; stroke: #c00a35; stroke-width: 0.8; stroke-linecap: square"/>
   </g>
   <g id="line2d_24">
    <path d="M 171.794558 315.443787 
L 171.794558 304.56426 
" clip-path="url(#p9c1e1049f5)" style="fill: none; stroke: #c00a35; stroke-width: 0.8; stroke-linecap: square"/>
   </g>
   <g id="line2d_25">
    <path d="M 188.113848 315.443787 
L 188.113848 304.56426 
" clip-path="url(#p9c1e1049f5)" style="fill: none; stroke: #c00a35; stroke-width: 0.8; stroke-linecap: square"/>
   </g>
   <g id="line2d_26">
    <path d="M 204.433138 315.443787 
L 204.433138 304.56426 
" clip-path="url(#p9c1e1049f5)" style="fill: none; stroke: #c00a35; stroke-width: 0.8; stroke-linecap: square"/>
   </g>
   <g id="line2d_27">
    <path d="M 140.969233 304.56426 
L 206.246392 304.56426 
" clip-path="url(#p9c1e1049f5)" style="fill: none; stroke: #c00a35; stroke-width: 1.2; stroke-linecap: square"/>
   </g>
   <g id="line2d_28">
    <path d="M 150.035505 304.56426 
L 150.035505 293.684734 
" clip-path="url(#p9c1e1049f5)" style="fill: none; stroke: #c00a35; stroke-width: 0.8; stroke-linecap: square"/>
   </g>
   <g id="line2d_29">
    <path d="M 166.354795 304.56426 
L 166.354795 293.684734 
" clip-path="url(#p9c1e1049f5)" style="fill: none; stroke: #c00a35; stroke-width: 0.8; stroke-linecap: square"/>
   </g>
   <g id="line2d_30">
    <path d="M 182.674085 304.56426 
L 182.674085 293.684734 
" clip-path="url(#p9c1e1049f5)" style="fill: none; stroke: #c00a35; stroke-width: 0.8; stroke-linecap: square"/>
   </g>
   <g id="line2d_31">
    <path d="M 198.993375 304.56426 
L 198.993375 293.684734 
" clip-path="url(#p9c1e1049f5)" style="fill: none; stroke: #c00a35; stroke-width: 0.8; stroke-linecap: square"/>
   </g>
   <g id="line2d_32">
    <path d="M 142.782487 293.684734 
L 204.433138 293.684734 
" clip-path="url(#p9c1e1049f5)" style="fill: none; stroke: #c00a35; stroke-width: 1.2; stroke-linecap: square"/>
   </g>
   <g id="line2d_33">
    <path d="M 142.782487 293.684734 
L 142.782487 282.805207 
" clip-path="url(#p9c1e1049f5)" style="fill: none; stroke: #c00a35; stroke-width: 0.8; stroke-linecap: square"/>
   </g>
   <g id="line2d_34">
    <path d="M 159.101777 293.684734 
L 159.101777 282.805207 
" clip-path="url(#p9c1e1049f5)" style="fill: none; stroke: #c00a35; stroke-width: 0.8; stroke-linecap: square"/>
   </g>
   <g id="line2d_35">
    <path d="M 175.421067 293.684734 
L 175.421067 282.805207 
" clip-path="url(#p9c1e1049f5)" style="fill: none; stroke: #c00a35; stroke-width: 0.8; stroke-linecap: square"/>
   </g>
   <g id="line2d_36">
    <path d="M 191.740357 293.684734 
L 191.740357 282.805207 
" clip-path="url(#p9c1e1049f5)" style="fill: none; stroke: #c00a35; stroke-width: 0.8; stroke-linecap: square"/>
   </g>
   <g id="line2d_37">
    <path d="M 144.595741 282.805207 
L 202.619884 282.805207 
" clip-path="url(#p9c1e1049f5)" style="fill: none; stroke: #c00a35; stroke-width: 1.2; stroke-linecap: square"/>
   </g>
   <g id="line2d_38">
    <path d="M 153.662014 282.805207 
L 153.662014 271.92568 
" clip-path="url(#p9c1e1049f5)" style="fill: none; stroke: #c00a35; stroke-width: 0.8; stroke-linecap: square"/>
   </g>
   <g id="line2d_39">
    <path d="M 169.981304 282.805207 
L 169.981304 271.92568 
" clip-path="url(#p9c1e1049f5)" style="fill: none; stroke: #c00a35; stroke-width: 0.8; stroke-linecap: square"/>
   </g>
   <g id="line2d_40">
    <path d="M 186.300594 282.805207 
L 186.300594 271.92568 
" clip-path="url(#p9c1e1049f5)" style="fill: none; stroke: #c00a35; stroke-width: 0.8; stroke-linecap: square"/>
   </g>
   <g id="line2d_41">
    <path d="M 146.408996 271.92568 
L 200.806629 271.92568 
" clip-path="url(#p9c1e1049f5)" style="fill: none; stroke: #c00a35; stroke-width: 1.2; stroke-linecap: square"/>
   </g>
   <g id="line2d_42">
    <path d="M 146.408996 271.92568 
L 146.408996 261.046154 
" clip-path="url(#p9c1e1049f5)" style="fill: none; stroke: #c00a35; stroke-width: 0.8; stroke-linecap: square"/>
   </g>
   <g id="line2d_43">
    <path d="M 162.728286 271.92568 
L 162.728286 261.046154 
" clip-path="url(#p9c1e1049f5)" style="fill: none; stroke: #c00a35; stroke-width: 0.8; stroke-linecap: square"/>
   </g>
   <g id="line2d_44">
    <path d="M 179.047576 271.92568 
L 179.047576 261.046154 
" clip-path="url(#p9c1e1049f5)" style="fill: none; stroke: #c00a35; stroke-width: 0.8; stroke-linecap: square"/>
   </g>
   <g id="line2d_45">
    <path d="M 195.366866 271.92568 
L 195.366866 261.046154 
" clip-path="url(#p9c1e1049f5)" style="fill: none; stroke: #c00a35; stroke-width: 0.8; stroke-linecap: square"/>
   </g>
   <g id="line2d_46">
    <path d="M 148.22225 261.046154 
L 198.993375 261.046154 
" clip-path="url(#p9c1e1049f5)" style="fill: none; stroke: #c00a35; stroke-width: 1.2; stroke-linecap: square"/>
   </g>
   <g id="line2d_47">
    <path d="M 157.288523 261.046154 
L 157.288523 250.166627 
" clip-path="url(#p9c1e1049f5)" style="fill: none; stroke: #c00a35; stroke-width: 0.8; stroke-linecap: square"/>
   </g>
   <g id="line2d_48">
    <path d="M 173.607813 261.046154 
L 173.607813 250.166627 
" clip-path="url(#p9c1e1049f5)" style="fill: none; stroke: #c00a35; stroke-width: 0.8; stroke-linecap: square"/>
   </g>
   <g id="line2d_49">
    <path d="M 189.927102 261.046154 
L 189.927102 250.166627 
" clip-path="url(#p9c1e1049f5)" style="fill: none; stroke: #c00a35; stroke-width: 0.8; stroke-linecap: square"/>
   </g>
   <g id="line2d_50">
    <path d="M 150.035505 250.166627 
L 197.18012 250.166627 
" clip-path="url(#p9c1e1049f5)" style="fill: none; stroke: #c00a35; stroke-width: 1.2; stroke-linecap: square"/>
   </g>
   <g id="line2d_51">
    <path d="M 150.035505 250.166627 
L 150.035505 239.287101 
" clip-path="url(#p9c1e1049f5)" style="fill: none; stroke: #c00a35; stroke-width: 0.8; stroke-linecap: square"/>
   </g>
   <g id="line2d_52">
    <path d="M 166.354795 250.166627 
L 166.354795 239.287101 
" clip-path="url(#p9c1e1049f5)" style="fill: none; stroke: #c00a35; stroke-width: 0.8; stroke-linecap: square"/>
   </g>
   <g id="line2d_53">
    <path d="M 182.674085 250.166627 
L 182.674085 239.287101 
" clip-path="url(#p9c1e1049f5)" style="fill: none; stroke: #c00a35; stroke-width: 0.8; stroke-linecap: square"/>
   </g>
   <g id="line2d_54">
    <path d="M 151.848759 239.287101 
L 195.366866 239.287101 
" clip-path="url(#p9c1e1049f5)" style="fill: none; stroke: #c00a35; stroke-width: 1.2; stroke-linecap: square"/>
   </g>
   <g id="line2d_55">
    <path d="M 160.915031 239.287101 
L 160.915031 228.407574 
" clip-path="url(#p9c1e1049f5)" style="fill: none; stroke: #c00a35; stroke-width: 0.8; stroke-linecap: square"/>
   </g>
   <g id="line2d_56">
    <path d="M 177.234321 239.287101 
L 177.234321 228.407574 
" clip-path="url(#p9c1e1049f5)" style="fill: none; stroke: #c00a35; stroke-width: 0.8; stroke-linecap: square"/>
   </g>
   <g id="line2d_57">
    <path d="M 193.553611 239.287101 
L 193.553611 228.407574 
" clip-path="url(#p9c1e1049f5)" style="fill: none; stroke: #c00a35; stroke-width: 0.8; stroke-linecap: square"/>
   </g>
   <g id="line2d_58">
    <path d="M 153.662014 228.407574 
L 193.553611 228.407574 
" clip-path="url(#p9c1e1049f5)" style="fill: none; stroke: #c00a35; stroke-width: 1.2; stroke-linecap: square"/>
   </g>
   <g id="line2d_59">
    <path d="M 153.662014 228.407574 
L 153.662014 217.528047 
" clip-path="url(#p9c1e1049f5)" style="fill: none; stroke: #c00a35; stroke-width: 0.8; stroke-linecap: square"/>
   </g>
   <g id="line2d_60">
    <path d="M 169.981304 228.407574 
L 169.981304 217.528047 
" clip-path="url(#p9c1e1049f5)" style="fill: none; stroke: #c00a35; stroke-width: 0.8; stroke-linecap: square"/>
   </g>
   <g id="line2d_61">
    <path d="M 186.300594 228.407574 
L 186.300594 217.528047 
" clip-path="url(#p9c1e1049f5)" style="fill: none; stroke: #c00a35; stroke-width: 0.8; stroke-linecap: square"/>
   </g>
   <g id="line2d_62">
    <path d="M 155.475268 217.528047 
L 191.740357 217.528047 
" clip-path="url(#p9c1e1049f5)" style="fill: none; stroke: #c00a35; stroke-width: 1.2; stroke-linecap: square"/>
   </g>
   <g id="line2d_63">
    <path d="M 101.077635 348.082367 
L 101.077635 304.56426 
" clip-path="url(#p9c1e1049f5)" style="fill: none; stroke: #000000; stroke-width: 2; stroke-linecap: square"/>
   </g>
   <g id="line2d_64">
    <path d="M 101.077635 329.949822 
L 82.945091 315.443787 
" clip-path="url(#p9c1e1049f5)" style="fill: none; stroke: #000000; stroke-width: 2; stroke-linecap: square"/>
   </g>
   <g id="line2d_65">
    <path d="M 101.077635 333.576331 
L 119.210179 319.070296 
" clip-path="url(#p9c1e1049f5)" style="fill: none; stroke: #000000; stroke-width: 2; stroke-linecap: square"/>
   </g>
   <g id="line2d_66">
    <path d="M 126.463197 348.082367 
L 126.463197 308.916071 
" clip-path="url(#p9c1e1049f5)" style="fill: none; stroke: #000000; stroke-width: 2; stroke-linecap: square"/>
   </g>
   <g id="line2d_67">
    <path d="M 126.463197 331.763077 
L 110.143907 318.707645 
" clip-path="url(#p9c1e1049f5)" style="fill: none; stroke: #000000; stroke-width: 2; stroke-linecap: square"/>
   </g>
   <g id="line2d_68">
    <path d="M 126.463197 335.026935 
L 142.782487 321.971503 
" clip-path="url(#p9c1e1049f5)" style="fill: none; stroke: #000000; stroke-width: 2; stroke-linecap: square"/>
   </g>
   <g id="line2d_69">
    <path d="M 220.752428 348.082367 
L 220.752428 308.916071 
" clip-path="url(#p9c1e1049f5)" style="fill: none; stroke: #000000; stroke-width: 2; stroke-linecap: square"/>
   </g>
   <g id="line2d_70">
    <path d="M 220.752428 331.763077 
L 204.433138 318.707645 
" clip-path="url(#p9c1e1049f5)" style="fill: none; stroke: #000000; stroke-width: 2; stroke-linecap: square"/>
   </g>
   <g id="line2d_71">
    <path d="M 220.752428 335.026935 
L 237.071718 321.971503 
" clip-path="url(#p9c1e1049f5)" style="fill: none; stroke: #000000; stroke-width: 2; stroke-linecap: square"/>
   </g>
   <g id="line2d_72">
    <path d="M 246.13799 348.082367 
L 246.13799 304.56426 
" clip-path="url(#p9c1e1049f5)" style="fill: none; stroke: #000000; stroke-width: 2; stroke-linecap: square"/>
   </g>
   <g id="line2d_73">
    <path d="M 246.13799 329.949822 
L 228.005446 315.443787 
" clip-path="url(#p9c1e1049f5)" style="fill: none; stroke: #000000; stroke-width: 2; stroke-linecap: square"/>
   </g>
   <g id="line2d_74">
    <path d="M 246.13799 333.576331 
L 264.270534 319.070296 
" clip-path="url(#p9c1e1049f5)" style="fill: none; stroke: #000000; stroke-width: 2; stroke-linecap: square"/>
   </g>
   <g id="patch_5">
    <path d="M 86.571599 304.56426 
L 93.824617 284.981112 
L 101.077635 271.92568 
L 108.330653 284.981112 
L 115.58367 304.56426 
L 108.330653 291.508828 
L 101.077635 281.717254 
L 93.824617 291.508828 
z
" clip-path="url(#p9c1e1049f5)" style="fill: #c00a35; stroke: #000000; stroke-width: 1.5; stroke-linejoin: miter"/>
   </g>
   <g id="patch_6">
    <path d="M 113.407765 308.916071 
L 119.935481 291.291238 
L 126.463197 279.541349 
L 132.990913 291.291238 
L 139.518629 308.916071 
L 132.990913 297.166182 
L 126.463197 288.353766 
L 119.935481 297.166182 
z
" clip-path="url(#p9c1e1049f5)" style="fill: #c00a35; stroke: #000000; stroke-width: 1.5; stroke-linejoin: miter"/>
   </g>
   <g id="patch_7">
    <path d="M 207.696996 308.916071 
L 214.224712 291.291238 
L 220.752428 279.541349 
L 227.280144 291.291238 
L 233.80786 308.916071 
L 227.280144 297.166182 
L 220.752428 288.353766 
L 214.224712 297.166182 
z
" clip-path="url(#p9c1e1049f5)" style="fill: #c00a35; stroke: #000000; stroke-width: 1.5; stroke-linejoin: miter"/>
   </g>
   <g id="patch_8">
    <path d="M 231.631955 304.56426 
L 238.884972 284.981112 
L 246.13799 271.92568 
L 253.391008 284.981112 
L 260.644026 304.56426 
L 253.391008 291.508828 
L 246.13799 281.717254 
L 238.884972 291.508828 
z
" clip-path="url(#p9c1e1049f5)" style="fill: #c00a35; stroke: #000000; stroke-width: 1.5; stroke-linejoin: miter"/>
   </g>
  </g>
  <g id="text_1">
   <!-- UtrechtIA -->
   <g style="fill: #ffcd00" transform="translate(79.957813 37.59375) scale(0.4 -0.4)">
    <defs>
     <path id="DejaVuSans-ExtraLight-55" d="M 716 4666 
L 1028 4666 
L 1028 1831 
Q 1028 944 1341 553 
Q 1650 166 2344 166 
Q 3034 166 3344 553 
Q 3656 944 3656 1831 
L 3656 4666 
L 3969 4666 
L 3969 1753 
Q 3969 841 3556 375 
Q 3147 -91 2344 -91 
Q 1538 -91 1128 375 
Q 716 841 716 1753 
L 716 4666 
z
" transform="scale(0.015625)"/>
     <path id="DejaVuSans-ExtraLight-74" d="M 1028 4494 
L 1028 3500 
L 2213 3500 
L 2213 3256 
L 1028 3256 
L 1028 1153 
Q 1028 753 1131 594 
Q 1344 244 1750 244 
L 2213 244 
L 2213 0 
L 1766 0 
Q 1338 0 1038 250 
Q 738 500 738 1153 
L 738 3256 
L 319 3256 
L 319 3500 
L 738 3500 
L 738 4494 
L 1028 4494 
z
" transform="scale(0.015625)"/>
     <path id="DejaVuSans-ExtraLight-72" d="M 2625 3253 
Q 2556 3288 2438 3313 
Q 2331 3331 2169 3331 
Q 1638 3331 1288 2938 
Q 1013 2619 1013 1844 
L 1013 0 
L 731 0 
L 731 3500 
L 1013 3500 
L 1013 2844 
Q 1153 3125 1406 3319 
Q 1756 3584 2231 3584 
Q 2353 3584 2444 3575 
Q 2538 3575 2625 3553 
L 2625 3253 
z
" transform="scale(0.015625)"/>
     <path id="DejaVuSans-ExtraLight-65" d="M 3453 1894 
L 3453 1713 
L 797 1713 
Q 797 869 1125 531 
Q 1488 156 2203 156 
Q 2391 156 2700 238 
Q 3013 319 3319 481 
L 3319 178 
Q 3009 47 2684 -22 
Q 2359 -91 2169 -91 
Q 1359 -91 950 347 
Q 506 813 506 1713 
Q 506 2647 913 3106 
Q 1328 3584 2069 3584 
Q 2756 3584 3106 3131 
Q 3453 2656 3453 1894 
z
M 3163 1956 
Q 3163 2694 2831 3031 
Q 2553 3331 2075 3331 
Q 1553 3331 1200 3019 
Q 875 2728 809 1956 
L 3163 1956 
z
" transform="scale(0.015625)"/>
     <path id="DejaVuSans-ExtraLight-63" d="M 3122 3331 
L 3122 3025 
Q 2863 3184 2694 3241 
Q 2403 3331 2138 3331 
Q 1381 3331 1053 2943 
Q 725 2556 725 1747 
Q 725 931 1053 543 
Q 1381 156 2138 156 
Q 2388 156 2631 225 
Q 2878 291 3122 425 
L 3122 134 
Q 2881 22 2625 -34 
Q 2366 -91 2113 -91 
Q 1344 -91 891 325 
Q 438 744 438 1747 
Q 438 2750 891 3169 
Q 1344 3584 2113 3584 
Q 2363 3584 2644 3513 
Q 2925 3444 3122 3331 
z
" transform="scale(0.015625)"/>
     <path id="DejaVuSans-ExtraLight-68" d="M 3369 2113 
L 3369 0 
L 3081 0 
L 3081 2094 
Q 3081 2769 2853 3050 
Q 2625 3331 2163 3331 
Q 1631 3331 1322 3018 
Q 1013 2706 1013 1978 
L 1013 0 
L 725 0 
L 725 4863 
L 1013 4863 
L 1013 2853 
Q 1113 3122 1369 3331 
Q 1675 3584 2231 3584 
Q 2750 3584 3059 3213 
Q 3369 2838 3369 2113 
z
" transform="scale(0.015625)"/>
     <path id="DejaVuSans-ExtraLight-49" d="M 775 4666 
L 1100 4666 
L 1100 0 
L 775 0 
L 775 4666 
z
" transform="scale(0.015625)"/>
     <path id="DejaVuSans-ExtraLight-41" d="M 2172 4350 
L 1172 1725 
L 3156 1725 
L 2172 4350 
z
M 1972 4666 
L 2381 4666 
L 4166 0 
L 3809 0 
L 3253 1466 
L 1075 1466 
L 522 0 
L 191 0 
L 1972 4666 
z
" transform="scale(0.015625)"/>
    </defs>
    <use xlink:href="#DejaVuSans-ExtraLight-55"/>
    <use xlink:href="#DejaVuSans-ExtraLight-74" x="73.193359"/>
    <use xlink:href="#DejaVuSans-ExtraLight-72" x="112.402344"/>
    <use xlink:href="#DejaVuSans-ExtraLight-65" x="151.265625"/>
    <use xlink:href="#DejaVuSans-ExtraLight-63" x="212.789062"/>
    <use xlink:href="#DejaVuSans-ExtraLight-68" x="267.769531"/>
    <use xlink:href="#DejaVuSans-ExtraLight-74" x="331.148438"/>
    <use xlink:href="#DejaVuSans-ExtraLight-49" x="370.357422"/>
    <use xlink:href="#DejaVuSans-ExtraLight-41" x="399.849609"/>
   </g>
  </g>
  <g id="text_2">
   <!-- Appropriately ridiculous acronym -->
   <g style="fill: #ffcd00" transform="translate(7.2 75.316875) scale(0.2 -0.2)">
    <defs>
     <path id="DejaVuSans-Oblique-41" d="M 2356 4666 
L 3072 4666 
L 3938 0 
L 3278 0 
L 3084 1197 
L 984 1197 
L 325 0 
L -341 0 
L 2356 4666 
z
M 2584 4044 
L 1275 1722 
L 2988 1722 
L 2584 4044 
z
" transform="scale(0.015625)"/>
     <path id="DejaVuSans-Oblique-70" d="M 3175 2156 
Q 3175 2616 2975 2859 
Q 2775 3103 2400 3103 
Q 2144 3103 1911 2972 
Q 1678 2841 1497 2591 
Q 1319 2344 1212 1994 
Q 1106 1644 1106 1300 
Q 1106 863 1306 627 
Q 1506 391 1875 391 
Q 2147 391 2380 519 
Q 2613 647 2778 891 
Q 2956 1147 3065 1494 
Q 3175 1841 3175 2156 
z
M 1394 2969 
Q 1625 3272 1939 3428 
Q 2253 3584 2638 3584 
Q 3175 3584 3472 3232 
Q 3769 2881 3769 2247 
Q 3769 1728 3584 1258 
Q 3400 788 3053 416 
Q 2822 169 2531 39 
Q 2241 -91 1919 -91 
Q 1547 -91 1294 64 
Q 1041 219 916 525 
L 556 -1331 
L -19 -1331 
L 922 3500 
L 1497 3500 
L 1394 2969 
z
" transform="scale(0.015625)"/>
     <path id="DejaVuSans-Oblique-72" d="M 2853 2969 
Q 2766 3016 2653 3041 
Q 2541 3066 2413 3066 
Q 1953 3066 1609 2717 
Q 1266 2369 1153 1784 
L 800 0 
L 225 0 
L 909 3500 
L 1484 3500 
L 1375 2956 
Q 1603 3259 1920 3421 
Q 2238 3584 2597 3584 
Q 2691 3584 2781 3573 
Q 2872 3563 2963 3538 
L 2853 2969 
z
" transform="scale(0.015625)"/>
     <path id="DejaVuSans-Oblique-6f" d="M 1625 -91 
Q 1009 -91 651 289 
Q 294 669 294 1325 
Q 294 1706 417 2101 
Q 541 2497 738 2766 
Q 1047 3184 1428 3384 
Q 1809 3584 2291 3584 
Q 2888 3584 3255 3212 
Q 3622 2841 3622 2241 
Q 3622 1825 3500 1412 
Q 3378 1000 3181 728 
Q 2875 309 2494 109 
Q 2113 -91 1625 -91 
z
M 891 1344 
Q 891 869 1089 633 
Q 1288 397 1691 397 
Q 2269 397 2648 901 
Q 3028 1406 3028 2181 
Q 3028 2634 2825 2865 
Q 2622 3097 2228 3097 
Q 1903 3097 1650 2945 
Q 1397 2794 1197 2484 
Q 1050 2253 970 1956 
Q 891 1659 891 1344 
z
" transform="scale(0.015625)"/>
     <path id="DejaVuSans-Oblique-69" d="M 1172 4863 
L 1747 4863 
L 1606 4134 
L 1031 4134 
L 1172 4863 
z
M 909 3500 
L 1484 3500 
L 800 0 
L 225 0 
L 909 3500 
z
" transform="scale(0.015625)"/>
     <path id="DejaVuSans-Oblique-61" d="M 3438 1997 
L 3047 0 
L 2472 0 
L 2578 531 
Q 2325 219 2001 64 
Q 1678 -91 1281 -91 
Q 834 -91 548 182 
Q 263 456 263 884 
Q 263 1497 752 1853 
Q 1241 2209 2100 2209 
L 2900 2209 
L 2931 2363 
Q 2938 2388 2941 2417 
Q 2944 2447 2944 2509 
Q 2944 2788 2717 2942 
Q 2491 3097 2081 3097 
Q 1800 3097 1504 3025 
Q 1209 2953 897 2809 
L 997 3341 
Q 1322 3463 1633 3523 
Q 1944 3584 2234 3584 
Q 2853 3584 3176 3315 
Q 3500 3047 3500 2534 
Q 3500 2431 3484 2292 
Q 3469 2153 3438 1997 
z
M 2816 1759 
L 2241 1759 
Q 1534 1759 1195 1570 
Q 856 1381 856 984 
Q 856 709 1029 553 
Q 1203 397 1509 397 
Q 1978 397 2328 733 
Q 2678 1069 2791 1631 
L 2816 1759 
z
" transform="scale(0.015625)"/>
     <path id="DejaVuSans-Oblique-74" d="M 2706 3500 
L 2619 3053 
L 1472 3053 
L 1100 1153 
Q 1081 1047 1072 975 
Q 1063 903 1063 863 
Q 1063 663 1183 572 
Q 1303 481 1569 481 
L 2150 481 
L 2053 0 
L 1503 0 
Q 991 0 739 200 
Q 488 400 488 806 
Q 488 878 497 964 
Q 506 1050 525 1153 
L 897 3053 
L 409 3053 
L 500 3500 
L 978 3500 
L 1172 4494 
L 1747 4494 
L 1556 3500 
L 2706 3500 
z
" transform="scale(0.015625)"/>
     <path id="DejaVuSans-Oblique-65" d="M 3078 2063 
Q 3088 2113 3092 2166 
Q 3097 2219 3097 2272 
Q 3097 2653 2873 2875 
Q 2650 3097 2266 3097 
Q 1838 3097 1509 2826 
Q 1181 2556 1013 2059 
L 3078 2063 
z
M 3578 1613 
L 903 1613 
Q 884 1494 878 1425 
Q 872 1356 872 1306 
Q 872 872 1139 634 
Q 1406 397 1894 397 
Q 2269 397 2603 481 
Q 2938 566 3225 728 
L 3116 159 
Q 2806 34 2476 -28 
Q 2147 -91 1806 -91 
Q 1078 -91 686 257 
Q 294 606 294 1247 
Q 294 1794 489 2264 
Q 684 2734 1063 3103 
Q 1306 3334 1642 3459 
Q 1978 3584 2356 3584 
Q 2950 3584 3301 3228 
Q 3653 2872 3653 2272 
Q 3653 2128 3634 1964 
Q 3616 1800 3578 1613 
z
" transform="scale(0.015625)"/>
     <path id="DejaVuSans-Oblique-6c" d="M 1172 4863 
L 1747 4863 
L 800 0 
L 225 0 
L 1172 4863 
z
" transform="scale(0.015625)"/>
     <path id="DejaVuSans-Oblique-79" d="M 1588 -325 
Q 1188 -997 936 -1164 
Q 684 -1331 294 -1331 
L -159 -1331 
L -63 -850 
L 269 -850 
Q 509 -850 678 -719 
Q 847 -588 1056 -206 
L 1234 128 
L 459 3500 
L 1069 3500 
L 1650 819 
L 3256 3500 
L 3859 3500 
L 1588 -325 
z
" transform="scale(0.015625)"/>
     <path id="DejaVuSans-Oblique-20" transform="scale(0.015625)"/>
     <path id="DejaVuSans-Oblique-64" d="M 2675 525 
Q 2444 222 2128 65 
Q 1813 -91 1428 -91 
Q 903 -91 598 267 
Q 294 625 294 1247 
Q 294 1766 478 2236 
Q 663 2706 1013 3078 
Q 1244 3325 1534 3454 
Q 1825 3584 2144 3584 
Q 2481 3584 2739 3421 
Q 2997 3259 3138 2956 
L 3513 4863 
L 4091 4863 
L 3144 0 
L 2566 0 
L 2675 525 
z
M 891 1350 
Q 891 897 1095 644 
Q 1300 391 1663 391 
Q 1931 391 2161 520 
Q 2391 650 2566 903 
Q 2750 1166 2856 1509 
Q 2963 1853 2963 2188 
Q 2963 2622 2758 2865 
Q 2553 3109 2194 3109 
Q 1922 3109 1687 2981 
Q 1453 2853 1288 2613 
Q 1106 2353 998 2009 
Q 891 1666 891 1350 
z
" transform="scale(0.015625)"/>
     <path id="DejaVuSans-Oblique-63" d="M 3431 3366 
L 3316 2797 
Q 3109 2947 2876 3022 
Q 2644 3097 2394 3097 
Q 2119 3097 1870 3000 
Q 1622 2903 1453 2725 
Q 1184 2453 1037 2087 
Q 891 1722 891 1331 
Q 891 859 1127 628 
Q 1363 397 1844 397 
Q 2081 397 2348 469 
Q 2616 541 2906 684 
L 2797 116 
Q 2547 13 2283 -39 
Q 2019 -91 1741 -91 
Q 1044 -91 669 257 
Q 294 606 294 1253 
Q 294 1797 489 2255 
Q 684 2713 1069 3078 
Q 1331 3328 1684 3456 
Q 2038 3584 2456 3584 
Q 2700 3584 2940 3529 
Q 3181 3475 3431 3366 
z
" transform="scale(0.015625)"/>
     <path id="DejaVuSans-Oblique-75" d="M 428 1388 
L 838 3500 
L 1416 3500 
L 1006 1409 
Q 975 1256 961 1147 
Q 947 1038 947 966 
Q 947 700 1109 554 
Q 1272 409 1569 409 
Q 2031 409 2368 721 
Q 2706 1034 2809 1563 
L 3194 3500 
L 3769 3500 
L 3091 0 
L 2516 0 
L 2631 550 
Q 2388 244 2052 76 
Q 1716 -91 1338 -91 
Q 878 -91 622 161 
Q 366 413 366 863 
Q 366 956 381 1097 
Q 397 1238 428 1388 
z
" transform="scale(0.015625)"/>
     <path id="DejaVuSans-Oblique-73" d="M 3200 3397 
L 3091 2853 
Q 2863 2978 2609 3040 
Q 2356 3103 2088 3103 
Q 1634 3103 1373 2948 
Q 1113 2794 1113 2528 
Q 1113 2219 1719 2053 
Q 1766 2041 1788 2034 
L 1972 1978 
Q 2547 1819 2739 1644 
Q 2931 1469 2931 1166 
Q 2931 609 2489 259 
Q 2047 -91 1331 -91 
Q 1053 -91 747 -37 
Q 441 16 72 128 
L 184 722 
Q 500 559 806 475 
Q 1113 391 1394 391 
Q 1816 391 2080 572 
Q 2344 753 2344 1031 
Q 2344 1331 1650 1516 
L 1591 1531 
L 1394 1581 
Q 956 1697 753 1886 
Q 550 2075 550 2369 
Q 550 2928 970 3256 
Q 1391 3584 2113 3584 
Q 2397 3584 2667 3537 
Q 2938 3491 3200 3397 
z
" transform="scale(0.015625)"/>
     <path id="DejaVuSans-Oblique-6e" d="M 3566 2113 
L 3156 0 
L 2578 0 
L 2988 2091 
Q 3016 2238 3031 2350 
Q 3047 2463 3047 2528 
Q 3047 2791 2881 2937 
Q 2716 3084 2419 3084 
Q 1956 3084 1622 2776 
Q 1288 2469 1184 1941 
L 800 0 
L 225 0 
L 903 3500 
L 1478 3500 
L 1363 2950 
Q 1603 3253 1940 3418 
Q 2278 3584 2650 3584 
Q 3113 3584 3367 3334 
Q 3622 3084 3622 2631 
Q 3622 2519 3608 2391 
Q 3594 2263 3566 2113 
z
" transform="scale(0.015625)"/>
     <path id="DejaVuSans-Oblique-6d" d="M 5747 2113 
L 5338 0 
L 4763 0 
L 5166 2094 
Q 5191 2228 5203 2325 
Q 5216 2422 5216 2491 
Q 5216 2772 5059 2928 
Q 4903 3084 4622 3084 
Q 4203 3084 3875 2770 
Q 3547 2456 3450 1953 
L 3066 0 
L 2491 0 
L 2900 2094 
Q 2925 2209 2937 2307 
Q 2950 2406 2950 2484 
Q 2950 2769 2794 2926 
Q 2638 3084 2363 3084 
Q 1938 3084 1609 2770 
Q 1281 2456 1184 1953 
L 800 0 
L 225 0 
L 909 3500 
L 1484 3500 
L 1375 2956 
Q 1609 3263 1923 3423 
Q 2238 3584 2597 3584 
Q 2978 3584 3223 3384 
Q 3469 3184 3519 2828 
Q 3781 3197 4126 3390 
Q 4472 3584 4856 3584 
Q 5306 3584 5551 3325 
Q 5797 3066 5797 2591 
Q 5797 2488 5784 2364 
Q 5772 2241 5747 2113 
z
" transform="scale(0.015625)"/>
    </defs>
    <use xlink:href="#DejaVuSans-Oblique-41"/>
    <use xlink:href="#DejaVuSans-Oblique-70" x="68.408203"/>
    <use xlink:href="#DejaVuSans-Oblique-70" x="131.884766"/>
    <use xlink:href="#DejaVuSans-Oblique-72" x="195.361328"/>
    <use xlink:href="#DejaVuSans-Oblique-6f" x="236.474609"/>
    <use xlink:href="#DejaVuSans-Oblique-70" x="297.65625"/>
    <use xlink:href="#DejaVuSans-Oblique-72" x="361.132812"/>
    <use xlink:href="#DejaVuSans-Oblique-69" x="402.246094"/>
    <use xlink:href="#DejaVuSans-Oblique-61" x="430.029297"/>
    <use xlink:href="#DejaVuSans-Oblique-74" x="491.308594"/>
    <use xlink:href="#DejaVuSans-Oblique-65" x="530.517578"/>
    <use xlink:href="#DejaVuSans-Oblique-6c" x="592.041016"/>
    <use xlink:href="#DejaVuSans-Oblique-79" x="619.824219"/>
    <use xlink:href="#DejaVuSans-Oblique-20" x="679.003906"/>
    <use xlink:href="#DejaVuSans-Oblique-72" x="710.791016"/>
    <use xlink:href="#DejaVuSans-Oblique-69" x="751.904297"/>
    <use xlink:href="#DejaVuSans-Oblique-64" x="779.6875"/>
    <use xlink:href="#DejaVuSans-Oblique-69" x="843.164062"/>
    <use xlink:href="#DejaVuSans-Oblique-63" x="870.947266"/>
    <use xlink:href="#DejaVuSans-Oblique-75" x="925.927734"/>
    <use xlink:href="#DejaVuSans-Oblique-6c" x="989.306641"/>
    <use xlink:href="#DejaVuSans-Oblique-6f" x="1017.089844"/>
    <use xlink:href="#DejaVuSans-Oblique-75" x="1078.271484"/>
    <use xlink:href="#DejaVuSans-Oblique-73" x="1141.650391"/>
    <use xlink:href="#DejaVuSans-Oblique-20" x="1193.75"/>
    <use xlink:href="#DejaVuSans-Oblique-61" x="1225.537109"/>
    <use xlink:href="#DejaVuSans-Oblique-63" x="1286.816406"/>
    <use xlink:href="#DejaVuSans-Oblique-72" x="1341.796875"/>
    <use xlink:href="#DejaVuSans-Oblique-6f" x="1382.910156"/>
    <use xlink:href="#DejaVuSans-Oblique-6e" x="1444.091797"/>
    <use xlink:href="#DejaVuSans-Oblique-79" x="1507.470703"/>
    <use xlink:href="#DejaVuSans-Oblique-6d" x="1566.650391"/>
   </g>
  </g>
 </g>
 <defs>
  <clipPath id="p9c1e1049f5">
   <rect x="68.439055" y="96.04" width="210.337515" height="306.44"/>
  </clipPath>
 </defs>
</svg>
